<svg width="29" height="30" viewBox="0 0 29 30" fill="none" xmlns="http://www.w3.org/2000/svg">
<mask id="mask0_16_327" style="mask-type:alpha" maskUnits="userSpaceOnUse" x="0" y="0" width="29" height="30">
<rect width="29" height="30" fill="#D9D9D9"/>
</mask>
<g mask="url(#mask0_16_327)">
<path d="M47.2008 4.42101V14.2143C47.2016 14.2502 47.1951 14.2858 47.1818 14.319C47.1684 14.3523 47.1485 14.3825 47.1232 14.4078C47.0978 14.4332 47.0676 14.4531 47.0344 14.4665C47.0011 14.4798 46.9655 14.4862 46.9297 14.4854H44.9318C44.896 14.4862 44.8604 14.4798 44.8271 14.4665C44.7939 14.4531 44.7637 14.4332 44.7383 14.4078C44.713 14.3825 44.693 14.3523 44.6797 14.319C44.6664 14.2858 44.6599 14.2502 44.6607 14.2143V4.42101C44.6599 4.38519 44.6664 4.34958 44.6797 4.31632C44.693 4.28307 44.713 4.25286 44.7383 4.22752C44.7637 4.20219 44.7939 4.18225 44.8271 4.16891C44.8604 4.15557 44.896 4.14911 44.9318 4.14992H46.9297C46.9655 4.14911 47.0011 4.15557 47.0344 4.16891C47.0676 4.18225 47.0978 4.20219 47.1232 4.22752C47.1485 4.25286 47.1684 4.28307 47.1818 4.31632C47.1951 4.34958 47.2016 4.38519 47.2008 4.42101V4.42101ZM62.7922 4.14992C62.8701 4.14992 62.9671 4.18842 63.0633 4.2661C63.122 4.32397 63.122 4.42101 63.1027 4.49892L59.8057 14.3114C59.7856 14.3622 59.751 14.4058 59.7062 14.4369C59.6613 14.468 59.6083 14.4852 59.5537 14.4861H57.7698C57.6534 14.4861 57.5563 14.4276 57.5178 14.3114L55.5967 8.59076L53.677 14.3109C53.657 14.3617 53.6223 14.4053 53.5775 14.4364C53.5326 14.4674 53.4796 14.4845 53.4251 14.4854H51.6411C51.5249 14.4854 51.4277 14.4276 51.3892 14.3107L48.0919 4.49824C48.0726 4.42101 48.0726 4.34333 48.1306 4.2661C48.1696 4.18842 48.2666 4.14992 48.3439 4.14992H50.5741C50.6903 4.14992 50.7873 4.22692 50.8265 4.34333L52.5908 10.1417L54.5304 4.34333C54.5504 4.29257 54.585 4.24888 54.6299 4.21778C54.6747 4.18668 54.7278 4.16957 54.7823 4.1686H56.353C56.4692 4.1686 56.5663 4.22692 56.605 4.34333L58.5445 10.1417L60.3093 4.34333C60.3251 4.28838 60.3581 4.23993 60.4035 4.20508C60.4488 4.17024 60.5041 4.15083 60.5613 4.1497H62.7915L62.7922 4.14992ZM66.1664 4.14992C66.302 4.14992 66.4184 4.2661 66.4375 4.42101V14.2143C66.4383 14.2502 66.4319 14.2858 66.4185 14.319C66.4052 14.3523 66.3853 14.3825 66.3599 14.4078C66.3346 14.4332 66.3044 14.4531 66.2711 14.4665C66.2379 14.4798 66.2023 14.4862 66.1664 14.4854H64.1688C64.133 14.4862 64.0974 14.4798 64.0641 14.4665C64.0309 14.4531 64.0007 14.4332 63.9753 14.4078C63.95 14.3825 63.93 14.3523 63.9167 14.319C63.9034 14.2858 63.8969 14.2502 63.8977 14.2143V4.42101C63.8969 4.38519 63.9034 4.34958 63.9167 4.31632C63.93 4.28307 63.95 4.25286 63.9753 4.22752C64.0007 4.20219 64.0309 4.18225 64.0641 4.16891C64.0974 4.15557 64.133 4.14911 64.1688 4.14992H66.1664ZM43.4969 14.1371C43.613 14.2727 43.5162 14.4663 43.3415 14.4663H40.8978C40.8497 14.4676 40.8019 14.4578 40.7582 14.4376C40.7145 14.4174 40.6761 14.3874 40.6459 14.3499L40.239 13.846C39.3857 14.3884 38.3767 14.7187 37.3104 14.7187C34.3245 14.7187 31.9002 12.2946 31.9002 9.30811C31.9002 6.32159 34.3245 3.89729 37.3106 3.89729C40.2971 3.89729 42.7212 6.32159 42.7212 9.30811C42.7212 10.3749 42.4107 11.3834 41.8678 12.2361L43.4969 14.1364V14.1371ZM23.0767 18.888C23.581 19.0819 23.7751 19.8379 23.8136 20.1676C23.8915 20.769 23.7172 21.0016 23.5231 21.0016C23.3291 21.0016 23.0573 20.7692 22.7668 20.3038C22.4755 19.8377 22.3591 19.3147 22.5147 19.0429C22.6112 18.8679 22.8245 18.791 23.0771 18.888H23.0767ZM20.1291 21.0795C20.4396 21.0795 20.7886 21.215 21.0988 21.4863C21.6998 21.9907 21.8748 22.5725 21.5643 22.999C21.3895 23.2124 21.0988 23.3482 20.7692 23.3482C20.4396 23.3482 20.0904 23.2318 19.858 23.0183C19.3149 22.5532 19.16 21.7768 19.5083 21.3508C19.6445 21.1758 19.858 21.0795 20.1291 21.0795V21.0795ZM13.3423 26.6835C5.97259 26.6837 0 20.7107 0 13.3419C0 5.97259 5.97305 0 13.3416 0C20.7104 0 26.6837 5.97305 26.6837 13.3416C26.6837 15.8429 25.9857 18.19 24.8032 20.1872C24.764 20.2453 24.667 20.2259 24.6476 20.1482C24.1822 16.8712 22.185 15.0673 19.276 14.5246C19.0235 14.4854 18.9848 14.3305 19.3147 14.292C20.2068 14.2143 21.467 14.2335 22.1265 14.3499C22.1656 14.0088 22.1851 13.6656 22.1848 13.3223C22.1848 8.45453 18.2285 4.49824 13.3608 4.49824C8.49371 4.49824 4.53742 8.45453 4.53742 13.3223C4.53742 18.19 8.49371 22.1463 13.3614 22.1463H13.7683C13.63 21.359 13.5714 20.5598 13.5934 19.7607C13.6134 19.2176 13.7296 19.1397 13.9624 19.5666C15.1841 21.6804 16.9296 23.5808 20.3423 24.3373C23.1347 24.9581 25.9272 25.6752 28.9328 29.4955C29.2044 29.8251 28.7975 30.1741 28.487 29.9028C25.4233 27.1874 22.6308 26.2955 20.0901 26.2955C17.2394 26.3154 15.3003 26.6837 13.3416 26.6837L13.3423 26.6835ZM38.6487 11.965L37.5819 10.6654C37.4662 10.5298 37.5632 10.3164 37.7375 10.3164H39.9868C40.103 10.0061 40.1616 9.65711 40.1616 9.30811C40.1616 7.69867 38.9592 6.30223 37.3106 6.30223C35.6629 6.30223 34.4598 7.69867 34.4598 9.30811C34.4598 10.9173 35.6627 12.2946 37.3106 12.2946C37.776 12.3138 38.2419 12.1785 38.6487 11.9648V11.965Z" fill="#FF8C00"/>
</g>
</svg>
