<svg width="34" height="30" viewBox="0 0 34 30" fill="none" xmlns="http://www.w3.org/2000/svg">
<path fill-rule="evenodd" clip-rule="evenodd" d="M33.0944 14.0321L33.5294 12.6371L32.0894 12.6829C31.9685 12.6829 31.0835 12.6565 30.2268 12.0344C30.2912 12.0397 30.3538 12.0494 30.4209 12.0494C31.3032 12.0494 32.1582 11.5165 32.4997 10.7541L33.1191 9.37765C32.3426 9.38824 31.6324 9.29029 31.6324 9.29029C31.6262 9.29029 31.0668 9.21706 30.42 8.55441C29.9559 8.08059 29.3815 7.82912 28.7594 7.82912C28.5131 7.83007 28.2685 7.86906 28.0341 7.94471C28.0668 7.83353 28.0976 7.71971 28.1162 7.60324C28.3129 6.315 27.4862 5.33382 27.4862 5.33382L26.4035 3.99088L25.7321 5.56853C25.7294 5.57382 25.56 5.94441 25.2574 6.12441C25.1656 5.66029 24.9406 5.13882 24.4606 4.64029C23.5544 3.70147 22.4524 3.56029 21.8753 3.56029C21.6079 3.56029 21.4165 3.59029 21.3706 3.59735L20.0638 3.855C20.1388 3.56294 20.3003 3.05206 20.5932 2.59412L21.315 1.46912L19.5 1.67647L18.9221 0.446471L17.8024 1.02441L16.7674 0L15.735 1.02353L14.6135 0.446471L14.0365 1.67559L12.2224 1.46824L12.945 2.595C13.2388 3.05294 13.3985 3.56118 13.4735 3.85324L12.2268 3.60618L12.1835 3.6C12.0113 3.57287 11.8373 3.5596 11.6629 3.56029C11.0859 3.56029 9.98382 3.70147 9.08029 4.64029C8.59941 5.13794 8.37353 5.66029 8.28176 6.12441C7.98088 5.94529 7.81235 5.58176 7.81235 5.58176L7.14 3.99353L6.03971 5.34706C5.90559 5.52088 5.24294 6.44382 5.42206 7.60588C5.44147 7.72147 5.47147 7.83441 5.50412 7.94559C5.27041 7.86969 5.02631 7.83069 4.78059 7.83C4.15765 7.83 3.58324 8.08147 3.11824 8.55529C2.47412 9.21529 1.91735 9.29029 1.92176 9.29029C1.92176 9.29029 1.33324 9.39618 0.421765 9.37853L1.03853 10.755C1.38088 11.5174 2.23676 12.0503 3.11735 12.0503C3.18441 12.0503 3.24706 12.0406 3.31235 12.0353C2.45647 12.6582 1.57235 12.6838 1.46559 12.6838L0 12.6371L0.443824 14.0312C0.667941 14.7512 1.41441 15.9415 2.84382 16.0694C2.68853 16.7224 2.34353 17.4547 1.58647 17.7706L0.494118 18.2206L1.08971 19.26C1.42588 19.8203 2.21559 20.4759 3.33882 20.4759C3.58147 20.4759 3.81618 20.4503 4.04294 20.4026C4.10029 20.6585 4.17265 20.9144 4.25824 21.1703C4.59176 22.1674 4.30412 22.8626 4.30059 22.8706L3.76235 24.0018L4.965 24.3194C4.98 24.3247 5.34441 24.4253 5.79882 24.4253C6.00529 24.4253 6.20294 24.4032 6.38824 24.3591C6.52765 24.3265 6.66176 24.2824 6.79147 24.2303C6.94765 24.51 7.13647 24.7659 7.35706 24.9944C8.12824 25.7876 9.22235 26.1891 10.6059 26.1891H10.6103L11.5985 26.1759L9.55677 27.0265L11.1071 27.7774C11.6709 28.0526 12.3379 28.3774 13.0191 28.6262L12.825 29.1565L13.3588 29.4009C13.4065 29.4229 14.4353 29.8826 16.1426 29.9806C16.1426 29.9806 16.5547 30 16.7815 30C17.0091 30 17.4168 29.9797 17.4168 29.9797C19.1126 29.8791 20.1326 29.4229 20.1803 29.4009L20.7159 29.1565L20.5209 28.6253C21.2197 28.3694 21.9124 28.0306 22.4532 27.7668L23.9744 27.0256L21.9388 26.1759L22.9315 26.1891C24.3168 26.1891 25.4109 25.7868 26.1812 24.9935C26.4009 24.7659 26.5888 24.5109 26.7459 24.2303C27.0608 24.3605 27.3986 24.4265 27.7394 24.4244C28.1868 24.4244 28.5547 24.3256 28.5644 24.3221L29.7732 24.0018L29.2465 22.8909C29.2341 22.8626 28.9465 22.1674 29.28 21.1685C29.3656 20.9144 29.4371 20.6576 29.4953 20.4026C29.7221 20.4503 29.9594 20.475 30.2038 20.4759C31.635 20.4759 32.3215 19.4674 32.4538 19.2485L33.0441 18.2197L31.9518 17.7706C31.1929 17.4556 30.8488 16.7232 30.6953 16.0712C32.1062 15.9476 32.8624 14.7565 33.0953 14.0329L33.0944 14.0321Z" fill="#FFFFFE"/>
<path fill-rule="evenodd" clip-rule="evenodd" d="M16.7673 4.27324C15.6114 4.27412 14.7441 4.65353 14.5553 5.10088L16.7673 5.97441L18.9803 5.10088C18.7932 4.65353 17.9258 4.27412 16.7673 4.27324ZM16.7911 27.4253H16.747C16.0464 27.4297 15.0803 27.2859 14.6161 27.1491L14.0567 28.6659C14.4256 28.7974 15.675 29.0497 16.77 29.0497C17.8632 29.0497 19.1135 28.7974 19.4814 28.6659L18.9229 27.15C18.4561 27.2859 17.4917 27.4297 16.7911 27.4253ZM21.0238 25.9165C20.6073 26.1529 19.6782 26.5076 19.1373 26.6718L19.5908 27.9247C20.4273 27.6953 21.1182 27.4279 21.6882 27.1412L20.7458 26.8279L21.0238 25.9165V25.9165ZM12.5135 25.9165L12.7923 26.8279L11.8491 27.1412C12.4182 27.4279 13.1117 27.6953 13.9456 27.9238L14.4 26.6709C13.86 26.5068 12.9291 26.1529 12.5135 25.9165V25.9165ZM16.7673 2.82353C17.64 2.82353 18.4941 3.03265 19.1523 3.39882C19.2123 3.19765 19.2961 2.95235 19.41 2.69559L19.1611 2.72559L18.9008 2.75206L18.7906 2.51471L18.457 1.81147L17.8517 2.12735L17.6153 2.24735L17.4264 2.06206L16.7673 1.40912L16.11 2.06206L15.922 2.24735L15.6864 2.12735L15.0776 1.81147L14.7485 2.51471L14.6364 2.75294L14.3753 2.72559L14.1282 2.69559C14.242 2.95235 14.325 3.19765 14.3858 3.39882C15.0458 3.03265 15.9 2.82353 16.7682 2.82353H16.7673ZM30.0776 10.9562C30.1914 10.995 30.3061 11.0126 30.42 11.0126C30.9141 11.0126 31.3906 10.6924 31.5538 10.3271C31.5538 10.3271 30.6494 10.2724 29.677 9.28324C29.3682 8.96382 29.04 8.86765 28.7594 8.86765C28.3226 8.86765 27.9944 9.09794 27.9944 9.09794C29.1697 9.72441 29.4088 10.7303 30.0776 10.9562V10.9562ZM3.11732 11.0118C3.23202 11.0118 3.34673 10.995 3.45702 10.9553C4.12761 10.7294 4.36938 9.72441 5.54202 9.09882C5.54202 9.09882 5.21379 8.86765 4.77967 8.86765C4.49732 8.86765 4.16996 8.96294 3.85938 9.28412C2.8879 10.2724 1.98438 10.3279 1.98438 10.3279C2.14673 10.6924 2.62408 11.0126 3.11732 11.0126V11.0118Z" fill="#FFFFFE"/>
<path fill-rule="evenodd" clip-rule="evenodd" d="M29.7238 18.1721C28.815 17.7221 28.2415 16.5309 28.1021 16.1021C27.9521 18.465 26.8006 20.1044 25.455 21.6821C24.7562 22.5009 24.5127 23.2968 24.5127 23.2968C24.5127 23.2968 24.6477 22.395 25.2512 21.6609C26.5068 20.1503 27.6997 18.2691 27.7888 16.0933C27.8497 14.5756 27.4606 13.3447 26.8518 12.33C27.1924 13.3862 27.1438 14.6806 25.9888 15.8886C25.9888 15.8886 28.2891 13.1285 25.0738 10.298C23.7874 9.22149 22.3791 8.5562 21.6547 8.08502C24.2727 8.9409 25.5521 7.99855 25.5521 7.99855C24.7156 8.72473 23.633 8.71237 22.9615 8.60737C23.1441 8.69649 23.3338 8.79002 23.5368 8.89855C25.7453 10.1003 27.7288 12.0777 28.0677 14.8147V14.7936C28.5803 17.4821 29.7238 18.1721 29.7238 18.1721ZM30.3962 15.0397C30.4165 15.0415 30.4341 15.0415 30.4544 15.0415C31.6853 15.0415 32.1018 13.7206 32.1018 13.7206H32.078C31.8521 13.7206 30.0221 13.6677 28.7285 12.0203C27.878 10.9377 27.18 9.98561 25.8018 9.61149L25.6659 9.58679L25.6368 9.44826C25.5988 9.23737 25.7427 9.03973 26.0709 8.82708C27.9724 7.57943 26.6797 5.98767 26.6797 5.98767C26.6797 5.98767 26.138 7.26002 24.923 7.26002L24.8321 7.25826C24.6944 7.2512 24.5612 7.24679 24.4271 7.21767L24.203 7.17355C24.203 7.17355 24.5497 6.22943 23.7132 5.36384C23.0841 4.70914 22.3174 4.59796 21.8753 4.59796C21.6521 4.59796 21.5109 4.62708 21.5109 4.62708C21.9309 5.17679 22.2344 6.09002 21.7491 6.65296C21.33 7.13649 20.3065 7.16031 20.3065 7.88208C20.3065 8.18737 20.5915 8.54384 21.1032 8.86414C22.6421 9.83473 24.1694 11.123 24.8047 12.8497C25.5988 15.0027 24.7041 16.4321 23.4282 17.2518C23.4282 17.2518 23.8288 17.6206 24.4085 17.6683C24.5268 17.6797 24.6424 17.685 24.75 17.685C25.9756 17.685 26.6091 17.1088 26.6091 17.1088C26.6091 17.1088 26.5041 17.9047 25.868 18.6433C25.2785 19.3244 24.5065 19.7268 23.3285 19.7435C23.3285 19.7435 23.2915 20.2906 23.813 20.7653C24.1474 21.0644 24.9177 21.1624 24.9177 21.1624C24.9177 21.1624 23.4741 21.4544 23.3144 23.5906C23.228 24.7483 22.9332 25.1497 22.9332 25.1497H22.9588C26.3083 25.1497 26.2227 22.2715 26.2227 22.2715C26.2227 22.2715 26.4556 23.1238 27.39 23.3462C27.503 23.3762 27.6238 23.3877 27.7385 23.3877C28.0385 23.3877 28.3006 23.3171 28.3006 23.3171C28.3006 23.3171 27.8109 22.283 28.2962 20.8368C28.6994 19.6359 28.6341 18.7465 28.6341 18.7465C28.6341 18.7465 29.085 19.4303 30.2047 19.4365H30.2162C30.4807 19.4406 30.7419 19.3779 30.9757 19.2542C31.2096 19.1305 31.4084 18.9498 31.5538 18.7288C29.3206 17.7997 29.5412 14.8024 29.5412 14.8024C29.5412 14.8024 29.8306 15.0194 30.3962 15.0406V15.0397ZM8.08237 21.6821C6.73678 20.1044 5.58531 18.465 5.43354 16.1021C5.29501 16.5318 4.72237 17.723 3.81443 18.1721C3.81443 18.1721 4.95619 17.4821 5.46884 14.7936V14.8147C5.80854 12.0777 7.79207 10.1003 10.0006 8.89943C10.2035 8.78914 10.3941 8.69649 10.575 8.60826C9.90443 8.71237 8.8209 8.72473 7.98531 7.99943C7.98531 7.99943 9.26472 8.9409 11.8818 8.08502C11.1582 8.5562 9.75001 9.22149 8.46443 10.298C5.24825 13.1285 7.54854 15.8886 7.54854 15.8886C6.39266 14.6797 6.34501 13.3871 6.6856 12.33C6.07678 13.3447 5.68678 14.5756 5.75031 16.0941C5.83766 18.2691 7.02972 20.1503 8.28266 21.6618C8.88972 22.3941 9.02648 23.2959 9.02648 23.2959C9.02648 23.2959 8.77943 22.5009 8.08237 21.6821ZM8.6206 21.1615C8.6206 21.1615 9.3909 21.0644 9.72531 20.7644C10.2459 20.2906 10.2097 19.7435 10.2097 19.7435C9.0309 19.7268 8.25972 19.3244 7.66766 18.6433C7.03413 17.9047 6.92825 17.1088 6.92825 17.1088C6.92825 17.1088 7.56178 17.685 8.7856 17.685C8.8959 17.685 9.0106 17.6797 9.12796 17.6683C9.49007 17.6316 9.83267 17.4864 10.1109 17.2518C8.83325 16.4321 7.93854 15.0027 8.73178 12.8488C9.36707 11.1238 10.8935 9.83473 12.4341 8.86326C12.945 8.54384 13.2291 8.18737 13.2291 7.88208C13.2291 7.16031 12.2074 7.13649 11.7882 6.65296C11.303 6.09002 11.6074 5.17679 12.0265 4.62708C12.0265 4.62708 11.8862 4.59796 11.6621 4.59796C11.2209 4.59796 10.4541 4.70914 9.82413 5.36384C8.9859 6.23031 9.33443 7.17443 9.33443 7.17443L9.11031 7.21855C8.97707 7.2459 8.84207 7.2512 8.70443 7.25914L8.61619 7.26002C7.39854 7.26002 6.85766 5.98855 6.85766 5.98855C6.85766 5.98855 5.56678 7.57943 7.46825 8.82708C7.79472 9.03973 7.93854 9.23826 7.9006 9.44826L7.87148 9.5859L7.73296 9.61061C6.35737 9.98561 5.65943 10.9377 4.80707 12.0203C3.51354 13.6677 1.68531 13.7206 1.45854 13.7206H1.43384C1.43384 13.7206 1.85119 15.0415 3.08296 15.0415C3.10237 15.0415 3.12001 15.0415 3.14119 15.0397C3.70678 15.0194 3.99707 14.8024 3.99707 14.8024C3.99707 14.8024 4.2159 17.7997 1.98354 18.7288C1.98354 18.7288 2.39031 19.4374 3.32207 19.4374H3.33266C4.45325 19.4303 4.90325 18.7465 4.90325 18.7465C4.90325 18.7465 4.83796 19.6368 5.23943 20.8368C5.72472 22.2838 5.23766 23.3162 5.23766 23.3162C5.23766 23.3162 5.49796 23.3868 5.79884 23.3868C5.91531 23.3868 6.03443 23.3762 6.14649 23.3462C7.08001 23.1238 7.31384 22.2715 7.31384 22.2715C7.31384 22.2715 7.22825 25.1497 10.5785 25.1497H10.6032C10.6032 25.1497 10.3094 24.7483 10.2238 23.5906C10.065 21.4553 8.61972 21.1615 8.61972 21.1615H8.6206ZM16.0121 10.5556H17.5915V11.0983C17.4062 10.8706 17.0444 10.9174 17.0444 10.9174V11.7C17.0444 11.7 17.0568 12.0847 17.1927 12.2515H16.4109C16.5477 12.0847 16.5591 11.7 16.5591 11.7V10.9174C16.5591 10.9174 16.1991 10.8706 16.0121 11.0983V10.5556V10.5556ZM14.2915 10.6368C14.3462 10.6959 14.4 10.7603 14.4521 10.8247C14.4644 10.8397 14.4759 10.853 14.4882 10.8706C14.5368 10.9341 14.5853 11.003 14.6321 11.0718L14.6638 11.1186C14.7194 11.2033 14.7724 11.2906 14.8253 11.3815C15.3088 12.2171 16.0818 12.7165 16.7674 12.7174C17.4547 12.7165 18.2268 12.2171 18.7112 11.3815C18.765 11.2888 18.8188 11.1988 18.8753 11.1141C18.9397 11.0154 19.0086 10.9198 19.0818 10.8274C19.1356 10.7603 19.1912 10.695 19.2477 10.635C19.2574 10.6262 19.2653 10.6165 19.275 10.6085C19.5221 10.3562 19.8141 10.1638 20.1988 10.0571L20.0277 9.95737H20.0188L19.3377 9.56208L18.6397 9.16061L16.7727 10.1788L16.7674 10.1744L16.7647 10.1788L14.8977 9.16061L14.1988 9.56208L13.5177 9.95737H13.5097L13.3377 10.0571C13.7215 10.163 14.0144 10.3536 14.2615 10.6068C14.2721 10.6156 14.2791 10.628 14.2915 10.6368V10.6368Z" fill="#FFFFFE"/>
<path fill-rule="evenodd" clip-rule="evenodd" d="M16.1736 7.1056V7.61736L16.0756 7.57148C16.0712 7.56795 15.9265 7.53619 15.6768 7.33677C15.263 7.0156 15.255 6.71913 15.255 6.71913L16.1727 7.1056H16.1736ZM16.6059 9.50295V6.32472L14.5871 5.63824L15.12 8.71766L16.6068 9.50295H16.6059ZM17.3647 7.1056L18.2824 6.71913C18.2824 6.71913 18.2753 7.0156 17.8597 7.33677C17.61 7.5353 17.4662 7.56795 17.4618 7.57148L17.3647 7.61648V7.1056ZM18.4174 8.71854L18.9477 5.63913L16.9297 6.32472V9.50295L18.4174 8.71766V8.71854ZM13.7506 16.8706C13.9474 16.9412 14.1856 16.9562 14.3083 16.9562C14.3127 16.9412 14.3197 16.9227 14.3259 16.8997C14.3356 16.8644 14.3462 16.8274 14.3541 16.7885C14.3886 16.6121 14.4 16.4135 14.4036 16.2847C14.2907 16.2176 14.1988 16.1205 14.138 16.0041C14.063 15.8462 13.9562 15.7721 13.8 15.7721C13.5971 15.7721 13.3791 15.8956 13.2847 15.9521C13.2106 16.3915 13.5344 16.7903 13.7506 16.8697V16.8706ZM18.2171 15.1844C17.843 15.593 17.108 16.305 17.0727 16.3403L17.0286 16.3844L14.708 16.3482C14.706 16.5402 14.6811 16.7313 14.6338 16.9174L14.6153 16.9906L17.3744 17.4882C17.6612 17.2871 18.4509 16.7091 18.758 16.4824C18.5347 16.1559 18.5136 15.7685 18.5638 15.4968C18.4314 15.4131 18.3141 15.3075 18.2171 15.1844V15.1844Z" fill="#FFFFFE"/>
<path fill-rule="evenodd" clip-rule="evenodd" d="M18.5321 12.3891C17.9974 12.9203 17.4847 13.1171 17.0268 13.163C16.943 13.172 16.8587 13.1767 16.7744 13.1771H16.763C16.5945 13.177 16.4265 13.1593 16.2618 13.1241C16.2318 13.2432 16.1939 13.493 16.3024 13.7294C16.3994 13.9438 16.5962 14.1035 16.8839 14.2103L16.9809 14.2482L16.9818 14.3524C16.9818 14.3832 17.0047 15.0591 17.7406 15.2471C17.8606 15.1235 17.97 15.0115 18.0494 14.9171C17.8994 14.5632 17.9789 14.2015 18.1968 14.0241C18.188 14.0621 18.0909 14.9488 18.8012 15.2788L18.9186 15.3344L18.8833 15.4588C18.8718 15.4968 18.6353 16.3553 19.4956 16.6747L19.6474 16.733L19.5794 16.8803C19.5644 16.913 19.2274 17.6921 20.0215 18.135H21.743V16.7647C21.1306 16.6897 20.8721 16.1965 20.805 15.8471C20.52 15.7985 20.3003 15.6759 20.1494 15.4756C19.7877 14.9991 20.0983 14.5624 20.1027 14.5385C20.1018 14.5421 20.1027 15.0062 20.3886 15.2938C20.5306 15.4315 20.6983 15.5391 20.9533 15.563L21.0777 15.5744L21.0883 15.7024C21.0909 15.7297 21.1589 16.3588 21.743 16.4577L21.7421 13.6606C21.7421 13.2265 21.8683 12.7906 22.02 12.3882H18.5321V12.3891ZM13.8971 13.6712L13.8512 15.4518L14.0542 15.4835L14.5483 13.7744L14.2968 13.2485L13.898 13.6712H13.8971ZM14.9683 20.2659C14.9547 20.2655 14.9414 20.2623 14.9291 20.2565C14.9168 20.2507 14.9058 20.2425 14.8968 20.2324C14.8878 20.2222 14.8809 20.2103 14.8767 20.1974C14.8725 20.1845 14.8709 20.1709 14.8721 20.1574C14.8729 20.144 14.8763 20.1309 14.8822 20.1189C14.8881 20.1068 14.8964 20.0961 14.9065 20.0873C14.9166 20.0785 14.9284 20.0718 14.9411 20.0677C14.9538 20.0635 14.9673 20.0619 14.9806 20.063C15.0389 20.0656 15.0794 20.1159 15.0777 20.1706C15.0756 20.1977 15.063 20.2229 15.0425 20.2407C15.0221 20.2585 14.9954 20.2676 14.9683 20.2659ZM19.3465 21.8427C19.3615 21.8427 19.3792 21.8444 19.395 21.8488C19.7039 21.9371 19.7806 23.0471 20.3197 23.1459C20.3727 23.1574 20.4221 23.16 20.4644 23.16C20.6206 23.16 20.7133 23.0938 20.8139 22.9747C20.8139 22.9747 20.5421 22.5485 20.3392 22.26C20.07 21.8824 19.8609 21.4262 19.3589 21.4262C19.3465 21.4262 19.3324 21.4262 19.3192 21.4279C19.2235 21.4318 19.131 21.463 19.0527 21.5179C18.8851 21.4071 18.6889 21.3473 18.488 21.3459C18.1747 21.3459 17.9294 21.4906 17.8068 21.4906H17.8024L16.6818 21.3794C16.5062 21.3618 16.3677 21.1853 16.3174 21.1165L16.298 21.0865C16.298 21.0556 16.298 21.0247 16.2962 20.9974C16.2583 20.0788 15.5489 19.6862 15.2956 19.6791C15.2956 19.6791 15.3256 19.5044 15.2577 19.4382L15.0106 19.7382L14.1989 19.3306L14.7777 20.0082L14.288 20.5597C14.2262 20.6224 14.2341 20.7071 14.2597 20.7432L14.4715 20.9303L14.7397 20.7671C14.753 20.7574 14.7777 20.7538 14.8077 20.7538C14.8818 20.7538 14.993 20.7732 15.0927 20.7732C15.203 20.7732 15.2974 20.7503 15.3089 20.6471C15.2753 20.9877 14.9594 21.5797 15.1668 22.0447L15.3203 22.3959L14.3294 22.2529L13.8653 23.0374C13.7224 23.2985 13.6994 23.5809 13.8371 23.7344L14.0109 23.9524C14.0109 23.9524 14.2544 23.6938 14.3083 23.5235L14.2297 23.4371C14.1636 23.3638 14.1671 23.2985 14.2077 23.22L14.4989 22.7365L15.668 23.0127L15.7297 22.9068C15.8091 22.7744 15.9239 22.7356 16.0491 22.7356C16.1012 22.7356 16.1542 22.7418 16.2089 22.7506C16.4259 22.7938 16.7833 22.8512 17.1406 22.8512C17.5333 22.8512 17.9224 22.7806 18.1297 22.5485C18.5533 23.1777 19.4127 23.2774 19.3447 23.5977L19.1189 24.6759C19.2689 24.6688 19.4127 24.6591 19.5494 24.6406L19.7647 23.5191C19.7822 23.4239 19.7975 23.3283 19.8106 23.2324C19.7277 23.1477 19.5274 22.9703 19.4136 22.7541C19.2627 22.4621 19.3447 22.3094 19.2036 21.93C19.2036 21.93 19.2477 21.8418 19.3465 21.8418V21.8427Z" fill="#FFFFFE"/>
<path fill-rule="evenodd" clip-rule="evenodd" d="M13.3704 22.8618C13.3704 22.8618 13.7586 22.7029 13.7939 22.5882L13.741 22.4594C13.7048 22.3747 13.7092 22.2829 13.7807 22.2335L14.1989 21.9432L14.8986 22.0782C14.8986 22.0782 14.7716 21.9194 14.7839 21.7076L14.1169 21.5665L13.4869 21.9503C13.377 22.0318 13.2975 22.1478 13.2612 22.2797C13.2249 22.4117 13.2338 22.552 13.2866 22.6782L13.3704 22.8626V22.8618ZM18.3178 24.69C18.4422 24.6847 18.5816 24.6829 18.7325 24.6829C18.7325 24.6829 19.0925 23.6285 19.1128 23.595C18.8454 23.4703 18.5845 23.3322 18.331 23.1812C18.4378 23.3418 18.6972 23.5244 18.646 23.6656L18.3178 24.69Z" fill="#FFFFFE"/>
<path fill-rule="evenodd" clip-rule="evenodd" d="M21.743 18.4368H11.7945V22.1859C11.7945 23.7195 12.9018 24.6786 14.5368 24.6786C15.9018 24.6786 16.2618 24.7315 16.7692 25.2371C17.1195 24.8868 17.4089 24.7571 18.0045 24.7077L18.0177 24.6503L18.331 23.6789C18.3133 23.6568 17.8015 23.0736 17.8015 23.0736C17.5986 23.1415 17.4274 23.153 17.1398 23.153C16.846 23.153 16.5133 23.1177 16.1524 23.0506C16.1186 23.0426 16.084 23.0385 16.0492 23.0383C16.0051 23.0383 16.0024 23.0418 15.9901 23.0639L15.9283 23.1671L15.8136 23.3559L15.5992 23.3056L14.6445 23.0806L14.513 23.2968L14.5333 23.3206L14.6489 23.4486L14.5977 23.6162C14.5271 23.8342 14.2995 24.0892 14.2298 24.1597L13.9915 24.4156L13.7736 24.1412L13.6104 23.9356C13.4383 23.7433 13.3986 23.4486 13.4957 23.1397C13.4928 23.1418 13.4895 23.143 13.486 23.1433L13.2168 23.2553L13.096 22.9906L13.0104 22.8045C12.9282 22.614 12.9134 22.4012 12.9684 22.2011C13.0235 22.0011 13.145 21.8258 13.313 21.7042L14.0807 21.2692L14.813 21.413C14.8307 21.3424 14.8571 21.0918 14.8774 21.0274C14.8633 21.0256 14.8501 21.023 14.836 21.023L14.4142 21.18L14.0083 20.8995C14.0083 20.8995 13.8495 20.7459 13.9933 20.5924L14.386 19.995L13.3889 18.7421L14.9215 19.3721L15.0239 19.2459L15.2304 18.9971L15.4651 19.2212C15.5268 19.2816 15.5697 19.3585 15.5886 19.4427C16.0104 19.6077 16.7674 20.0939 16.8345 20.8845L16.598 20.9789V20.985C16.6518 21.0495 16.6968 21.0759 16.711 21.0786L17.8051 21.1862C17.8333 21.1809 17.8668 21.1686 17.9057 21.158C18.0424 21.1112 18.2463 21.0433 18.488 21.0433C18.6857 21.0433 18.8763 21.0892 19.0589 21.1756C19.1268 21.1492 19.2089 21.1306 19.306 21.1245L19.3589 21.1227C19.9439 21.1227 20.2351 21.5612 20.4689 21.9115C20.5077 21.9724 20.5465 22.0289 20.5871 22.0853C20.7918 22.3747 21.0592 22.7974 21.0698 22.8159L21.1907 23.0039L21.0424 23.1768C20.9295 23.3092 20.7574 23.4636 20.4645 23.4636C20.3981 23.463 20.3319 23.4562 20.2668 23.4433C20.2068 23.4318 20.1482 23.4137 20.0921 23.3895C20.0832 23.4517 20.0729 23.5138 20.0613 23.5756L19.8698 24.5789C21.0168 24.2965 21.7457 23.4283 21.7457 22.1859L21.743 18.4368V18.4368ZM11.7945 18.135H19.5327C19.1463 17.7345 19.1524 17.2289 19.2504 16.8997C19.146 16.8496 19.0489 16.7855 18.9618 16.7092C18.6592 16.9324 17.7363 17.6056 17.4954 17.775L17.4433 17.8103L14.4063 17.2597H14.3445C14.2721 17.2597 14.1654 17.2571 14.0489 17.2421C14.0364 17.2979 14.0081 17.3488 13.9672 17.3888C13.9264 17.4288 13.8749 17.4561 13.8189 17.4674C13.7628 17.4787 13.7048 17.4735 13.6516 17.4525C13.5985 17.4314 13.5526 17.3954 13.5195 17.3489C13.4962 17.3171 13.4796 17.2809 13.4705 17.2426C13.4614 17.2043 13.46 17.1645 13.4665 17.1256L13.478 17.0595C13.1657 16.8389 12.8754 16.3447 13.0042 15.8242L13.0165 15.7695L13.0607 15.7377C13.1052 15.7073 13.1511 15.679 13.1983 15.653L12.9777 15.6177C12.9385 15.611 12.9035 15.5892 12.8801 15.5571C12.8567 15.525 12.8468 15.485 12.8524 15.4456C12.8665 15.3627 12.9433 15.3045 13.0254 15.3195L13.5504 15.4024L13.5989 13.5486L14.3807 12.7192L14.8695 13.7489L14.3542 15.533L14.8183 15.6062C14.8579 15.6127 14.8934 15.6347 14.9169 15.6672C14.9404 15.6998 14.95 15.7404 14.9436 15.78C14.9379 15.8152 14.9198 15.8471 14.8927 15.8701C14.8655 15.8931 14.831 15.9056 14.7954 15.9053L14.7715 15.9045L14.393 15.8427C14.3983 15.855 14.4054 15.8612 14.4107 15.8736C14.4528 15.9466 14.5162 16.0051 14.5924 16.0412L16.9068 16.0792C17.0048 15.983 17.2474 15.7447 17.498 15.4924C17.2799 15.4123 17.0884 15.2731 16.945 15.0903C16.8016 14.9075 16.712 14.6883 16.6863 14.4574C16.3686 14.3215 16.148 14.1186 16.0263 13.8539C15.878 13.5256 15.931 13.1974 15.9707 13.0377C15.6618 12.9256 15.3371 12.7192 15.0054 12.3892H11.5183C11.6683 12.7915 11.7945 13.2274 11.7945 13.6606V18.1342V18.135Z" fill="#FFE52B"/>
<path fill-rule="evenodd" clip-rule="evenodd" d="M14.9806 20.0629C14.9671 20.0619 14.9536 20.0635 14.9408 20.0677C14.9281 20.072 14.9163 20.0787 14.9061 20.0876C14.896 20.0965 14.8878 20.1073 14.8819 20.1195C14.8761 20.1316 14.8727 20.1448 14.872 20.1582C14.8709 20.1717 14.8726 20.1852 14.8769 20.198C14.8812 20.2108 14.8881 20.2226 14.8971 20.2327C14.9061 20.2427 14.917 20.2509 14.9292 20.2566C14.9415 20.2623 14.9547 20.2655 14.9682 20.2659C14.9952 20.2676 15.0217 20.2587 15.0422 20.241C15.0626 20.2234 15.0754 20.1984 15.0776 20.1715C15.0791 20.1442 15.0697 20.1175 15.0515 20.0972C15.0333 20.0768 15.0078 20.0645 14.9806 20.0629V20.0629ZM19.5917 27.9247L19.1373 26.6718C19.6782 26.5068 20.6073 26.1521 21.0247 25.9165L20.7467 26.8279L21.6882 27.1412C21.1182 27.4271 20.4282 27.6944 19.5917 27.9238V27.9247ZM16.77 29.0497C15.675 29.0497 14.4256 28.7974 14.0567 28.6659L14.6161 27.15C15.0803 27.2859 16.0456 27.4297 16.747 27.4253H16.7911C17.4917 27.4297 18.4561 27.285 18.9229 27.15L19.4814 28.6659C19.1126 28.7982 17.8632 29.0497 16.77 29.0497ZM11.85 27.1412L12.7923 26.8279L12.5135 25.9165C12.9291 26.1521 13.8609 26.5077 14.4 26.6718L13.9456 27.9247C13.1117 27.6953 12.4191 27.4271 11.85 27.1412ZM21.7306 26.8632L21.157 26.6427L21.3159 26.0497L21.4897 25.4029C21.4897 25.4029 20.475 25.9553 19.0429 26.3691C18.637 26.4856 18.33 26.5394 18.33 26.5394V26.9797C18.33 26.9797 17.5641 27.1121 16.7911 27.1121H16.747C15.9723 27.1121 15.2082 26.9797 15.2082 26.9797V26.5385C15.2082 26.5385 14.9003 26.4856 14.4944 26.3691C13.0641 25.9544 12.0494 25.4029 12.0494 25.4029L12.2206 26.0497L12.3829 26.6427L11.8076 26.8632L11.1697 27.1015C11.9003 27.4553 12.9132 27.9697 13.8397 28.2238L13.6217 28.8221C13.6217 28.8221 14.797 29.3585 16.755 29.3638V29.3647H16.7814V29.3638C18.742 29.3585 19.9173 28.8221 19.9173 28.8221L19.6967 28.2238C20.6241 27.9697 21.6388 27.4562 22.3659 27.1015L21.7306 26.8632V26.8632ZM14.3761 2.72471L14.6364 2.75294L14.7485 2.51471L15.0767 1.81147L15.6856 2.12736L15.922 2.24824L16.7673 1.40824L17.4264 2.06118L17.6153 2.24824L17.8517 2.12736L18.457 1.81147L18.7906 2.51471L18.9009 2.75294L19.1611 2.72471L19.41 2.69559C19.2961 2.95236 19.2123 3.19677 19.1514 3.39971C18.4941 3.03177 17.64 2.82353 16.7682 2.82353C15.9 2.82353 15.0459 3.03177 14.3859 3.39971C14.3147 3.15988 14.2286 2.92472 14.1282 2.69559L14.3753 2.72471H14.3761ZM16.7673 3.18971C17.9347 3.18971 18.8673 3.57794 19.3835 3.99C19.3835 3.99 19.537 3.06618 20.0594 2.25177L19.1197 2.35765L18.6282 1.31206L17.6841 1.8L16.7673 0.892944L15.8541 1.8L14.9082 1.31206L14.4176 2.35853L13.4779 2.25089C14.0011 3.06618 14.1538 3.98912 14.1538 3.98912C14.6726 3.57706 15.6026 3.18971 16.7673 3.18971V3.18971ZM31.5538 18.7288C31.5538 18.7288 31.1479 19.4374 30.2161 19.4374H30.2047C29.0859 19.4303 28.6341 18.7465 28.6341 18.7465C28.6341 18.7465 28.6994 19.6359 28.297 20.8368C27.8117 22.2838 28.3006 23.3162 28.3006 23.3162C28.3006 23.3162 28.0394 23.3877 27.7385 23.3877C27.6238 23.3877 27.5038 23.3762 27.39 23.3462C26.4556 23.1247 26.2226 22.2724 26.2226 22.2724C26.2226 22.2724 26.3091 25.1497 22.9588 25.1497H22.9323C22.9323 25.1497 23.2279 24.7482 23.3153 23.5906C23.4741 21.4553 24.9176 21.1615 24.9176 21.1615C24.9176 21.1615 24.1473 21.0644 23.8129 20.7653C23.2914 20.2915 23.3276 19.7435 23.3276 19.7435C24.5064 19.7268 25.2794 19.3253 25.8679 18.6432C26.2472 18.2069 26.503 17.6772 26.6091 17.1088C26.6091 17.1088 25.9756 17.685 24.75 17.685C24.6423 17.685 24.5276 17.6797 24.4094 17.6682C23.8288 17.6215 23.4282 17.2518 23.4282 17.2518C24.7041 16.4321 25.5988 15.0018 24.8056 12.8488C24.1703 11.1238 22.642 9.83471 21.1041 8.86412C20.5923 8.54383 20.3064 8.18736 20.3064 7.88118C20.3064 7.1603 21.33 7.13736 21.75 6.65294C22.2353 6.09 21.9309 5.17677 21.5109 4.62706C21.5109 4.62706 21.652 4.59794 21.8753 4.59794C22.3182 4.59794 23.0841 4.70912 23.7141 5.36383C24.5497 6.2303 24.2029 7.17441 24.2029 7.17441L24.427 7.21853C24.5611 7.24589 24.6944 7.25206 24.8329 7.25912L24.9229 7.26C26.1379 7.26 26.6806 5.98765 26.6806 5.98765C26.6806 5.98765 27.9723 7.57941 26.0709 8.82706C25.7435 9.03971 25.5988 9.23824 25.6367 9.44824L25.6667 9.58677L25.8017 9.61059C27.18 9.98559 27.8779 10.9385 28.7294 12.0203C30.0229 13.6677 31.8529 13.7206 32.0779 13.7206H32.1026C32.1026 13.7206 31.6853 15.0415 30.4544 15.0415C30.4341 15.0415 30.4164 15.0415 30.3961 15.0397C29.8314 15.0194 29.5403 14.8024 29.5403 14.8024C29.5403 14.8024 29.3206 17.7997 31.5538 18.7288V18.7288ZM30.4544 15.4456C31.9632 15.4456 32.4679 13.9077 32.4891 13.8424L32.6567 13.2997L32.092 13.3174H32.0903C31.89 13.3174 30.2259 13.2732 29.0461 11.7706L28.9341 11.6312C28.1629 10.6491 27.4314 9.71471 26.1238 9.28853C26.1761 9.24278 26.2318 9.20118 26.2906 9.16412C26.9841 8.70706 27.3882 8.15206 27.4888 7.50706C27.6379 6.53736 27.0194 5.76442 26.9929 5.73265L26.5729 5.21206L26.31 5.82971C26.2923 5.86765 25.8511 6.85589 24.9229 6.85589H24.8541C24.7906 6.85324 24.7297 6.85059 24.6697 6.8453C24.7023 6.40412 24.622 5.72294 24.0044 5.08236C23.2623 4.31206 22.3517 4.19647 21.8753 4.19647C21.6211 4.19647 21.4517 4.22824 21.4332 4.23L20.7988 4.35618L21.1897 4.87236C21.4967 5.27118 21.7756 6.00618 21.4456 6.39C21.3397 6.51353 21.1226 6.61147 20.9153 6.71118C20.4882 6.90794 19.9041 7.18324 19.9041 7.88118C19.9041 8.33294 20.2544 8.80677 20.8897 9.20824C22.7673 10.3915 23.9267 11.6268 24.427 12.99C25.2017 15.0865 24.1914 16.2829 23.2094 16.9129L22.77 17.1962L23.1556 17.5509C23.2076 17.5968 23.6779 18.0124 24.3741 18.0724C24.5064 18.0812 24.6326 18.0882 24.7509 18.0882C25.1964 18.0882 25.5767 18.0177 25.8856 17.9241C25.7933 18.0852 25.6857 18.2371 25.5644 18.3777C25.0041 19.0288 24.3141 19.3253 23.3214 19.3412L22.9526 19.3465L22.9244 19.7171C22.9209 19.7921 22.8935 20.4794 23.542 21.0635C23.6417 21.1535 23.7617 21.2285 23.8879 21.2885C23.4467 21.6856 23.0003 22.3774 22.9138 23.5615C22.8406 24.5497 22.605 24.9159 22.6023 24.9203L22.1947 25.5432L22.9314 25.5529C24.1482 25.5529 25.08 25.2177 25.725 24.5506C26.059 24.2002 26.3084 23.7779 26.4538 23.3162C26.8121 23.6217 27.2676 23.7894 27.7385 23.7891C28.0826 23.7891 28.3703 23.7159 28.402 23.7088L28.8723 23.5835L28.665 23.1441C28.6491 23.1088 28.2573 22.2265 28.6791 20.9674C28.8609 20.4229 28.9535 19.9359 28.9985 19.5556C29.295 19.7109 29.6911 19.8379 30.2038 19.8397C31.3685 19.8397 31.8811 18.9688 31.9041 18.9327L32.1335 18.5321L31.7082 18.3574C30.3211 17.7803 30.0141 16.2309 29.9523 15.3927C30.0785 15.4165 30.2214 15.4385 30.3829 15.4429L30.4544 15.4456V15.4456Z" fill="#1A1919"/>
<path fill-rule="evenodd" clip-rule="evenodd" d="M28.7593 8.86765C29.0399 8.86765 29.3681 8.96383 29.677 9.28412C30.6493 10.2724 31.5537 10.3279 31.5537 10.3279C31.3896 10.6924 30.9131 11.0126 30.4199 11.0126C30.3061 11.0126 30.1905 10.995 30.0784 10.9553C29.4087 10.7294 29.1696 9.72441 27.9952 9.09883C27.9952 9.09883 28.3217 8.86765 28.7593 8.86765V8.86765ZM27.8037 9.4553C28.3658 9.7553 28.694 10.1585 28.9817 10.515C29.264 10.8635 29.5314 11.1988 29.9522 11.3382C30.1005 11.3894 30.2584 11.4141 30.4199 11.4141C31.049 11.4141 31.6817 11.0276 31.9217 10.4929L32.1625 9.95824L31.5793 9.92294C31.552 9.92294 30.8011 9.85324 29.9664 8.99912C29.6222 8.64794 29.2067 8.46441 28.7593 8.46441C28.2122 8.46441 27.8064 8.73794 27.7622 8.76618L27.2258 9.14471L27.8037 9.4553V9.4553ZM28.0675 14.7944V14.8147C27.7287 12.0776 25.7452 10.1012 23.5367 8.89941C23.3337 8.79 23.144 8.69647 22.9614 8.60824C23.6328 8.71235 24.7155 8.72471 25.552 7.99941C25.552 7.99941 24.2725 8.94088 21.6546 8.085C22.3781 8.55618 23.7872 9.22147 25.0737 10.2979C28.2881 13.1285 25.9887 15.8885 25.9887 15.8885C27.1446 14.6806 27.1922 13.3871 26.8517 12.33C27.4605 13.3447 27.8487 14.5756 27.7887 16.0941C27.7005 18.2691 26.5067 20.1503 25.2511 21.6618C24.6475 22.3941 24.5134 23.2959 24.5134 23.2959C24.5134 23.2959 24.757 22.5009 25.4549 21.6829C26.8005 20.1035 27.952 18.465 28.102 16.1021C28.2414 16.5318 28.8149 17.7229 29.7237 18.1721C29.7237 18.1721 28.5811 17.4821 28.0675 14.7944V14.7944ZM10.5793 25.1497C7.22901 25.1497 7.3146 22.2724 7.3146 22.2724C7.3146 22.2724 7.07989 23.1247 6.14725 23.3462C6.03332 23.3748 5.91619 23.3888 5.79872 23.3876C5.49872 23.3876 5.23754 23.3171 5.23754 23.3171C5.23754 23.3171 5.72548 22.2829 5.23931 20.8368C4.83872 19.6368 4.90401 18.7465 4.90401 18.7465C4.90401 18.7465 4.45313 19.4303 3.33342 19.4374H3.32195C2.39107 19.4374 1.98431 18.7288 1.98431 18.7288C4.21666 17.7997 3.99784 14.8024 3.99784 14.8024C3.99784 14.8024 3.70666 15.0194 3.14195 15.0406H3.08284C1.85107 15.0406 1.43372 13.7206 1.43372 13.7206H1.45931C1.68695 13.7206 3.51431 13.6676 4.80695 12.0203C5.65842 10.9376 6.35725 9.98559 7.73284 9.61147L7.87136 9.58677L7.90048 9.44824C7.93931 9.23824 7.7946 9.03971 7.46813 8.82706C5.56666 7.57941 6.85754 5.98853 6.85754 5.98853C6.85754 5.98853 7.39754 7.26 8.61607 7.26L8.70431 7.25912C8.84195 7.25206 8.97695 7.24588 9.11019 7.21765L9.33431 7.17441C9.33431 7.17441 8.98666 6.2303 9.82489 5.36383C10.4549 4.70912 11.2199 4.59794 11.662 4.59794C11.887 4.59794 12.0255 4.62706 12.0255 4.62706C11.6072 5.17677 11.3037 6.09 11.7872 6.65294C12.2072 7.13735 13.2299 7.1603 13.2299 7.88118C13.2299 8.18735 12.9449 8.54382 12.434 8.86412C10.8943 9.83471 9.36695 11.1229 8.73166 12.8497C7.93931 15.0026 8.83401 16.4321 10.1108 17.2526C10.1108 17.2526 9.70931 17.6215 9.12872 17.6682C9.01493 17.6792 8.90068 17.6848 8.78636 17.685C7.56166 17.685 6.92813 17.1097 6.92813 17.1097C6.92813 17.1097 7.03401 17.9047 7.66754 18.6441C8.25872 19.3253 9.03078 19.7268 10.2087 19.7435C10.2087 19.7435 10.2467 20.2906 9.72519 20.7653C9.39078 21.0653 8.62048 21.1624 8.62048 21.1624C8.62048 21.1624 10.0649 21.4553 10.2237 23.5906C10.3102 24.7482 10.6031 25.1497 10.6031 25.1497H10.5793ZM10.9349 24.9203C10.934 24.9159 10.7002 24.5497 10.6252 23.5615C10.537 22.3774 10.0905 21.6856 9.64842 21.2885C9.77636 21.2285 9.89548 21.1535 9.99431 21.0635C10.6428 20.4794 10.6155 19.7929 10.6111 19.7171L10.5864 19.3465L10.2149 19.3412C9.22489 19.3253 8.53401 19.0288 7.97372 18.3776C7.85294 18.2367 7.74542 18.0849 7.65254 17.9241C7.96137 18.0185 8.33901 18.0882 8.78636 18.0882C8.90548 18.0882 9.03078 18.0812 9.16225 18.0724C9.61259 18.0274 10.0384 17.8457 10.3825 17.5518L10.7681 17.1962L10.3287 16.9138C9.34401 16.2829 8.33725 15.0874 9.11107 12.99C9.61136 11.6268 10.7681 10.3924 12.6493 9.20824C13.2846 8.80677 13.6322 8.33294 13.6322 7.88118C13.6322 7.18324 13.0499 6.90794 12.6228 6.71118C12.4146 6.61147 12.1975 6.51265 12.0925 6.39C11.7617 6.00618 12.0396 5.27118 12.3475 4.87235L12.7411 4.35618L12.1031 4.23C12.0855 4.22735 11.9178 4.19647 11.662 4.19647C11.1864 4.19647 10.2767 4.31206 9.53548 5.08235C8.91695 5.72294 8.83578 6.405 8.86754 6.8453C8.80754 6.85059 8.74754 6.85324 8.68401 6.85588H8.61607C7.68431 6.85588 7.24489 5.86765 7.22813 5.82971L6.96607 5.21206L6.54254 5.73265C6.51872 5.76441 5.89842 6.53735 6.05019 7.50706C6.14989 8.15118 6.55401 8.70706 7.24754 9.16412C7.32342 9.21265 7.37548 9.25412 7.41342 9.28853C6.10401 9.71471 5.37431 10.6491 4.60313 11.6312L4.49195 11.7706C3.31313 13.2732 1.6446 13.3182 1.44519 13.3182L0.876953 13.3006L1.04989 13.8424C1.07019 13.9076 1.57313 15.4456 3.08284 15.4456L3.15519 15.4429C3.31489 15.4385 3.45872 15.4165 3.58578 15.3918C3.52401 16.23 3.21519 17.7803 1.82813 18.3565L1.4046 18.5329L1.63401 18.9326C1.65519 18.9688 2.17048 19.8397 3.33695 19.8397C3.75445 19.8439 4.16676 19.747 4.53872 19.5574C4.58372 19.9368 4.67725 20.4229 4.85901 20.9674C5.28078 22.2256 4.88813 23.1088 4.87313 23.1441L4.66489 23.5835L5.13519 23.7079C5.16695 23.7168 5.45636 23.7891 5.79872 23.7891C6.26976 23.7903 6.7256 23.6225 7.08342 23.3162C7.21136 23.7106 7.43107 24.1562 7.81136 24.5506C8.45901 25.2168 9.38989 25.5529 10.6058 25.5529L11.3425 25.5432L10.9349 24.9203V24.9203Z" fill="#1A1919"/>
<path fill-rule="evenodd" clip-rule="evenodd" d="M3.8595 9.28412C4.17009 8.96382 4.49744 8.86676 4.77979 8.86676C5.21391 8.86676 5.54303 9.09882 5.54303 9.09882C4.3695 9.72529 4.12774 10.7294 3.45715 10.9562C3.34793 10.994 3.23303 11.0128 3.11744 11.0118C2.62421 11.0118 2.14685 10.6924 1.9845 10.3279C1.9845 10.3279 2.88803 10.2724 3.8595 9.28412V9.28412ZM3.11744 11.4141C3.27891 11.4141 3.43685 11.3894 3.58685 11.3382C4.00685 11.1988 4.27509 10.8644 4.55744 10.515C4.84597 10.1594 5.17068 9.75618 5.73362 9.45618L6.31244 9.1447L5.77421 8.76529C5.73009 8.73794 5.32685 8.46529 4.77979 8.46529C4.33156 8.46529 3.91509 8.64794 3.57185 8.99912C2.73626 9.85412 1.98715 9.92294 1.95979 9.92382L1.37744 9.95823L1.61568 10.4938C1.85744 11.0276 2.48921 11.4141 3.11744 11.4141V11.4141ZM5.7495 16.0941C5.68774 14.5756 6.07597 13.3447 6.68479 12.33C6.34597 13.3871 6.39185 14.6806 7.5495 15.8894C7.5495 15.8894 5.24832 13.1276 8.4645 10.2988C9.75097 9.22147 11.1583 8.55618 11.8819 8.085C9.26479 8.94088 7.98626 7.99853 7.98626 7.99853C8.82185 8.7247 9.9045 8.71323 10.576 8.60735C10.3942 8.69647 10.2036 8.78912 10.0007 8.89941C7.79215 10.1003 5.8095 12.0776 5.46891 14.8147V14.7944C4.95627 17.4821 3.8145 18.1721 3.8145 18.1721C4.72332 17.7221 5.29509 16.5309 5.4345 16.1021C5.58627 18.465 6.73685 20.1044 8.08156 21.6829C8.78038 22.5009 9.02568 23.2959 9.02568 23.2959C9.02568 23.2959 8.88979 22.395 8.28362 21.6618C7.03068 20.1503 5.83774 18.2691 5.7495 16.0941V16.0941ZM16.0121 10.5556V11.0991C16.1992 10.8706 16.5592 10.9174 16.5592 10.9174V11.7C16.5592 11.7 16.5477 12.0847 16.411 12.2515H17.1927C17.0569 12.0847 17.0436 11.7 17.0436 11.7V10.9174C17.0436 10.9174 17.4054 10.8706 17.5907 11.0991V10.5556H16.0113H16.0121ZM15.6769 7.33676C15.9266 7.53529 16.0713 7.56882 16.0757 7.57147L16.1727 7.61647V7.10559L15.2551 6.71912C15.2551 6.71912 15.263 7.01559 15.6769 7.33676V7.33676ZM17.8598 7.33676C18.2745 7.01559 18.2833 6.71912 18.2833 6.71912L17.3648 7.10559V7.61735L17.4619 7.57147C17.4663 7.56882 17.6101 7.53529 17.8598 7.33676Z" fill="#1A1919"/>
<path fill-rule="evenodd" clip-rule="evenodd" d="M16.7683 5.97533L14.5562 5.10004C14.7442 4.65356 15.6115 4.27415 16.7683 4.27327C17.9259 4.27415 18.7933 4.65356 18.9812 5.10004L16.7683 5.97533ZM18.4174 8.71856L16.9306 9.50386V6.32386L18.9486 5.63739L18.4174 8.7168V8.71856ZM19.3386 9.56209L20.018 9.95739H20.0277L20.1989 10.0571C19.815 10.163 19.5212 10.3562 19.275 10.6086L19.2486 10.635C19.1905 10.697 19.1349 10.7611 19.0818 10.8274L19.0509 10.868C18.998 10.9359 18.9477 11.0056 18.9009 11.078L18.8753 11.1142C18.8181 11.2015 18.7637 11.2907 18.7121 11.3815C18.2268 12.2171 17.4548 12.7165 16.7683 12.7183C16.0818 12.7165 15.3089 12.2171 14.8253 11.3815C14.7739 11.2924 14.7201 11.2047 14.6639 11.1186L14.6321 11.0718C14.586 11.0037 14.5383 10.9366 14.4892 10.8706C14.4768 10.853 14.4653 10.8397 14.453 10.8247C14.4012 10.7604 14.3473 10.6977 14.2915 10.6368C14.28 10.628 14.2721 10.6165 14.2615 10.6068C14.0094 10.3428 13.69 10.1527 13.3377 10.0571L13.5106 9.95739H13.5177L14.1998 9.56209L14.8977 9.16062L16.7648 10.1789L16.7683 10.1753L16.7736 10.1789L18.6398 9.16062L19.3386 9.56209ZM22.0209 12.3892C21.8683 12.7915 21.7421 13.2274 21.7421 13.6606L21.7439 16.4577C21.1606 16.3606 21.0909 15.7306 21.0892 15.7033L21.0786 15.5753L20.9524 15.5639C20.7384 15.545 20.5385 15.4494 20.3895 15.2947C20.1027 15.008 20.1027 14.5439 20.1027 14.5394C20.0992 14.5633 19.7886 14.9983 20.1486 15.4747C20.3003 15.6759 20.5209 15.8003 20.805 15.8489C20.8721 16.1974 21.1315 16.6906 21.7439 16.7665V18.1342H20.0224C19.2283 17.6921 19.5645 16.9139 19.5803 16.8803L19.6474 16.7321L19.4956 16.6747C18.6353 16.3553 18.8727 15.4959 18.8842 15.4589L18.9195 15.3336L18.8012 15.2789C18.0918 14.9489 18.188 14.0612 18.1977 14.0242C17.9789 14.2015 17.9003 14.5624 18.0503 14.918C17.9692 15.0115 17.8598 15.1236 17.7406 15.2471C17.5334 15.2018 17.3468 15.0896 17.2096 14.9277C17.0725 14.7659 16.9924 14.5634 16.9818 14.3515L16.9809 14.2474L16.8839 14.2103C16.5971 14.1044 16.4003 13.9439 16.3024 13.7294C16.1939 13.4921 16.2318 13.2442 16.2618 13.1233C16.4267 13.1575 16.5946 13.1752 16.763 13.1762H16.7745C16.86 13.1762 16.9439 13.1709 17.0268 13.163C17.4856 13.1171 17.9974 12.9203 18.5321 12.3892H22.0209V12.3892ZM19.8698 24.5789L20.0621 23.5756L20.093 23.3903C20.2117 23.4368 20.3378 23.4616 20.4653 23.4636C20.7583 23.4636 20.9295 23.3083 21.0433 23.1768L21.1898 23.0047L21.0698 22.8159C21.0592 22.7974 20.7918 22.3747 20.5871 22.0853C20.5464 22.0282 20.5073 21.9699 20.4698 21.9106C20.2359 21.5612 19.9439 21.1227 19.358 21.1227L19.3059 21.1244C19.2216 21.129 19.1383 21.1459 19.0589 21.1747C18.8806 21.0895 18.6856 21.0449 18.488 21.0442C18.2892 21.0489 18.0926 21.0871 17.9065 21.1571C17.8677 21.1686 17.8324 21.1809 17.805 21.1862L16.7109 21.0786C16.6968 21.075 16.6527 21.0486 16.598 20.985V20.9789L16.8345 20.8844C16.7683 20.0939 16.0103 19.6077 15.5886 19.4427C15.5699 19.3581 15.527 19.2809 15.465 19.2203L15.2303 18.9971L15.0239 19.245L14.9224 19.3721L13.3889 18.7412L14.3859 19.995L13.9933 20.5924C13.8486 20.745 14.0083 20.8994 14.0083 20.8994L14.4142 21.18L14.8359 21.0221C14.85 21.0221 14.8624 21.0256 14.8774 21.0274C14.8571 21.0918 14.8306 21.3433 14.813 21.413L14.0815 21.2692L13.3139 21.7042C12.9177 21.9953 12.8639 22.4753 13.0112 22.8044L13.0959 22.9915L13.2168 23.2553L13.4859 23.1442C13.4903 23.1424 13.4939 23.1415 13.4965 23.1389C13.3995 23.4486 13.4392 23.7424 13.6112 23.9356L13.7745 24.1412L13.9915 24.4165L14.2298 24.1597C14.3003 24.0892 14.528 23.8342 14.5977 23.6153L14.6489 23.4486L14.5333 23.3206L14.5139 23.2968L14.6445 23.0806L15.5992 23.3065L15.8145 23.3559L15.9292 23.1662L15.9909 23.0639C16.0024 23.0418 16.005 23.0383 16.0492 23.0383C16.0836 23.0383 16.1171 23.0418 16.1533 23.0506C16.4789 23.1149 16.8097 23.1489 17.1415 23.1521C17.4265 23.1521 17.5986 23.1415 17.8015 23.0736C17.8015 23.0736 18.3142 23.6559 18.3318 23.6789L18.0177 24.6494L18.0036 24.7077C17.4098 24.7562 17.1203 24.8868 16.77 25.2371C16.2618 24.7324 15.9027 24.6786 14.5377 24.6786C12.9027 24.6786 11.7945 23.7194 11.7945 22.185V18.4368H21.7439L21.7456 22.185C21.7456 23.4283 21.0168 24.2956 19.8698 24.5789V24.5789ZM13.7418 22.4594L13.7939 22.5892C13.7586 22.7021 13.3703 22.8627 13.3703 22.8627L13.2874 22.6783C13.2344 22.5519 13.2254 22.4114 13.2617 22.2793C13.298 22.1471 13.3776 22.031 13.4877 21.9494L14.1168 21.5656L14.7848 21.7068C14.7715 21.9194 14.8986 22.0783 14.8986 22.0783L14.1998 21.9442L13.7806 22.2336C13.71 22.283 13.7048 22.3747 13.7418 22.4594V22.4594ZM19.7639 23.5183L19.5495 24.6397C19.4118 24.6592 19.2671 24.6697 19.1189 24.675L19.3448 23.5986C19.4118 23.2774 18.5542 23.1777 18.1298 22.5486C17.9224 22.7815 17.5333 22.8512 17.1415 22.8512C16.7833 22.8512 16.4268 22.7939 16.2089 22.7506C16.1564 22.7415 16.1033 22.7365 16.05 22.7356C15.9239 22.7356 15.81 22.7744 15.7306 22.9077L15.6689 23.0136L14.4989 22.7374L14.2077 23.22C14.1671 23.2986 14.1636 23.3639 14.2298 23.4371L14.3092 23.5236C14.2545 23.6939 14.0109 23.9524 14.0109 23.9524L13.8371 23.7344C13.6995 23.5809 13.7224 23.2986 13.8653 23.0374L14.3295 22.2521L15.3203 22.3959L15.1668 22.0439C14.9595 21.5789 15.2753 20.9877 15.3089 20.6471C15.2974 20.7503 15.203 20.7733 15.0936 20.7733C14.993 20.7733 14.8818 20.7547 14.8077 20.7547C14.7786 20.7547 14.753 20.7574 14.7398 20.7671L14.4715 20.9303L14.2598 20.7433C14.2342 20.708 14.2262 20.6224 14.288 20.5589L14.7786 20.0083L14.1998 19.3306L15.0098 19.7392L15.2577 19.4383C15.3256 19.5053 15.2956 19.6792 15.2956 19.6792C15.5489 19.6862 16.2592 20.0789 16.2962 20.9965C16.2989 21.0247 16.2989 21.0556 16.2989 21.0865L16.3174 21.1165C16.3677 21.1862 16.5062 21.3636 16.6818 21.3794L17.8024 21.4906H17.8068C17.9303 21.4906 18.1748 21.3459 18.488 21.3459C18.66 21.3459 18.8498 21.39 19.0527 21.518C19.0527 21.518 19.155 21.4368 19.32 21.428C19.3324 21.4262 19.3465 21.4262 19.358 21.4262C19.8609 21.4262 20.07 21.8815 20.34 22.26C20.543 22.5477 20.8139 22.9747 20.8139 22.9747C20.7142 23.0939 20.6206 23.16 20.4645 23.16C20.4159 23.1602 20.3674 23.1555 20.3198 23.1459C19.7815 23.0462 19.703 21.9371 19.3959 21.8489C19.3798 21.8446 19.3632 21.8425 19.3465 21.8427C19.2477 21.8427 19.2045 21.9309 19.2045 21.9309C19.3456 22.3094 19.2627 22.4621 19.4145 22.7542C19.5274 22.9703 19.7277 23.1477 19.8106 23.2324C19.8106 23.2324 19.7886 23.3965 19.7639 23.5192V23.5183ZM18.7324 24.683C18.5824 24.683 18.443 24.6847 18.3177 24.69L18.6459 23.6656C18.6971 23.5236 18.4377 23.3409 18.3309 23.1803C18.4924 23.2827 18.9115 23.5068 19.1136 23.595C18.9826 23.9563 18.8556 24.319 18.7324 24.683V24.683ZM13.8512 15.4518L13.898 13.6712L14.2968 13.2486L14.5474 13.7744L14.0533 15.4836L13.8503 15.4527L13.8512 15.4518ZM14.138 16.0042C14.1986 16.1201 14.2902 16.217 14.4027 16.2839C14.3996 16.4531 14.3834 16.6218 14.3542 16.7886C14.3453 16.8274 14.3365 16.8636 14.325 16.8997C14.3198 16.9227 14.3127 16.9412 14.3083 16.9562C14.1856 16.9562 13.9465 16.9412 13.7515 16.8697C13.5345 16.7903 13.2106 16.3915 13.2856 15.9521C13.3792 15.8947 13.5962 15.7721 13.8 15.7721C13.9562 15.7721 14.063 15.8462 14.138 16.0042V16.0042ZM18.758 16.4824C18.4518 16.7092 17.6612 17.2871 17.3745 17.4883L14.6145 16.9906L14.6339 16.9174C14.6692 16.7736 14.7071 16.5777 14.7089 16.3474L17.0286 16.3844L17.0727 16.3403C17.108 16.305 17.843 15.593 18.2171 15.1844C18.3062 15.2965 18.4174 15.4024 18.5639 15.4959C18.5145 15.7694 18.5348 16.1559 18.758 16.4824V16.4824ZM15.0053 12.3892C15.338 12.7192 15.6618 12.9247 15.9706 13.0377C15.9309 13.1965 15.878 13.5265 16.0262 13.8539C16.148 14.1186 16.3686 14.3215 16.6871 14.4574C16.7224 14.7839 16.928 15.2753 17.4989 15.4924C17.2483 15.7447 17.0048 15.983 16.9077 16.0783L14.5924 16.0421C14.5159 16.0055 14.4525 15.9464 14.4106 15.8727C14.4062 15.8612 14.3983 15.855 14.393 15.8427L14.7715 15.9044L14.7953 15.9053C14.8309 15.9056 14.8654 15.8931 14.8926 15.8701C14.9198 15.8471 14.9379 15.8152 14.9436 15.78C14.95 15.7405 14.9405 15.7001 14.9172 15.6675C14.8939 15.6349 14.8586 15.6129 14.8192 15.6062L14.3542 15.5321L14.8695 13.7489L14.3815 12.7192L13.5989 13.5486L13.5512 15.4024L13.0253 15.3186C12.9442 15.3027 12.8665 15.3627 12.8515 15.4447C12.8456 15.4845 12.8556 15.5249 12.8791 15.5574C12.9027 15.5899 12.9381 15.6118 12.9777 15.6186L13.1983 15.6521C13.1189 15.6971 13.0668 15.7333 13.0606 15.7377L13.0165 15.7694L13.0042 15.8242C12.8762 16.3447 13.1656 16.8389 13.478 17.0594L13.4665 17.1256C13.4542 17.205 13.4718 17.2844 13.5195 17.3489C13.5466 17.388 13.5829 17.4199 13.6252 17.4417C13.6675 17.4636 13.7145 17.4747 13.7621 17.4742C13.829 17.4736 13.8937 17.4505 13.9457 17.4085C13.9978 17.3665 14.0341 17.3082 14.0489 17.243C14.1653 17.2562 14.2721 17.2597 14.3445 17.2597H14.4071L17.4433 17.8094L17.4953 17.775C17.7371 17.6056 18.66 16.9324 18.9618 16.7092C19.0456 16.7806 19.1383 16.8459 19.2503 16.8997C19.1524 17.2289 19.1462 17.7344 19.5327 18.135H11.7945V13.6615C11.7945 13.2274 11.6683 12.7915 11.5183 12.3892H15.0053V12.3892ZM14.5871 5.63915L16.6068 6.32474V9.50298L15.12 8.71768L14.5871 5.63827V5.63915ZM19.5142 5.25533C19.5142 4.47974 18.2109 3.7818 16.7727 3.7818H16.7639C15.3256 3.7818 14.0233 4.47974 14.0233 5.25533L14.0515 5.44592L14.6259 8.74856L14.0489 9.08386L12.5568 9.95739H12.5621C12.5621 9.95739 12.2268 10.1303 12.0706 10.2362C11.5024 10.6315 11.3815 11.2086 11.7115 11.4468C11.7927 10.9765 12.1642 10.485 12.8586 10.485C13.3598 10.485 13.7409 10.7444 14.0498 11.1318C14.1292 11.2297 14.2042 11.3347 14.2739 11.4468C14.3603 11.5889 14.4477 11.7142 14.5333 11.8342H10.688C10.9703 12.4033 11.2395 13.0059 11.2395 13.6606V22.1859C11.2395 24.2489 12.8233 25.2336 14.5368 25.2336C15.8612 25.2336 16.0395 25.1736 16.77 25.9024C17.4971 25.1736 17.6762 25.2336 19.0015 25.2336C20.7159 25.2336 22.2971 24.2489 22.2971 22.1859V13.6606C22.2971 13.0059 22.5662 12.4033 22.8503 11.8342H19.0033C19.0898 11.7142 19.1762 11.5889 19.2627 11.4468C19.3333 11.3347 19.4083 11.2297 19.4859 11.1318C19.7965 10.7427 20.1777 10.485 20.6789 10.485C21.3733 10.485 21.7439 10.9765 21.8259 11.4468C22.1559 11.2086 22.0368 10.6315 21.4642 10.2362C21.3124 10.1303 20.9753 9.95739 20.9753 9.95739H20.9815L19.4859 9.08386L18.9124 8.74856L19.4859 5.44592L19.5142 5.25533V5.25533Z" fill="#1A1919"/>
</svg>
