<svg width="30" height="30" viewBox="0 0 30 30" fill="none" xmlns="http://www.w3.org/2000/svg">
<path d="M15 30C23.2843 30 30 23.2843 30 15C30 6.71573 23.2843 0 15 0C6.71573 0 0 6.71573 0 15C0 23.2843 6.71573 30 15 30Z" fill="#0D1E30"/>
<g filter="url(#filter0_d_20_369)">
<path d="M14.7423 5.68135C15.1913 5.44979 15.7398 5.9851 15.5016 6.42666C15.3619 6.78666 14.836 6.88228 14.5679 6.6076C14.2838 6.3451 14.3766 5.82385 14.7423 5.68041V5.68135ZM9.90945 6.19322C10.1823 6.0826 10.5282 6.32822 10.5001 6.62166C10.5282 6.93854 10.1344 7.17291 9.85601 7.02197C9.48757 6.88135 9.52976 6.2926 9.90945 6.19322V6.19322ZM19.8076 7.03041C19.381 6.97979 19.3135 6.31979 19.7232 6.18666C20.0419 6.03479 20.3344 6.32072 20.3813 6.61791C20.3138 6.87104 20.0982 7.10354 19.8076 7.03041V7.03041ZM11.0091 8.21635C11.4657 7.93229 12.1163 8.3551 12.046 8.87728C12.0226 9.40322 11.3119 9.70885 10.9107 9.3526C10.5226 9.07322 10.5816 8.43197 11.0091 8.21635ZM17.9748 8.51822C18.1782 8.0026 19.0032 7.98572 19.2348 8.48822C19.4644 8.87916 19.1823 9.36385 18.7744 9.49697C18.2335 9.59635 17.7207 9.02072 17.9748 8.51822ZM14.1601 9.46791C14.1554 9.02353 14.566 8.69353 14.9944 8.6626C15.2794 8.71885 15.5888 8.83791 15.7107 9.1201C15.9385 9.5101 15.736 10.0454 15.3263 10.2245C15.1388 10.3276 14.9157 10.2892 14.7113 10.277C14.3991 10.127 14.1357 9.82978 14.1601 9.46791ZM6.9732 10.1148C7.39038 9.86166 7.95288 10.321 7.79445 10.7673C7.7082 11.1526 7.18132 11.3092 6.88038 11.0635C6.55882 10.8329 6.60945 10.2788 6.97413 10.1138L6.9732 10.1148ZM22.4063 10.1129C22.7598 9.84291 23.3438 10.1532 23.3007 10.592C23.3251 10.9923 22.8198 11.2951 22.4691 11.0888C22.0829 10.9173 22.0426 10.3323 22.4063 10.1138V10.1129ZM16.1813 10.9107C16.7644 10.7045 17.4582 10.951 17.7901 11.4638C18.2288 12.0892 17.9963 13.0417 17.3148 13.4007C16.6098 13.8254 15.5794 13.4663 15.3179 12.6901C15.0226 11.9963 15.4538 11.1282 16.1804 10.9107H16.1813ZM12.7566 10.9792C13.4035 10.6792 14.2744 10.9304 14.5866 11.581C14.9541 12.2148 14.6701 13.097 14.0129 13.4242C13.3548 13.7926 12.4257 13.5132 12.1079 12.8335C11.7507 12.1754 12.0676 11.282 12.7566 10.9792V10.9792ZM9.3282 12.1313C9.37788 11.7217 9.7707 11.4545 10.1673 11.4263C10.3741 11.4482 10.5674 11.5395 10.7155 11.6855C10.8637 11.8314 10.9579 12.0233 10.9829 12.2298C10.9548 12.6517 10.6238 13.0623 10.1701 13.0604C9.67038 13.1026 9.23257 12.6132 9.3282 12.1313V12.1313ZM19.4551 11.5163C19.9679 11.2229 20.6794 11.6495 20.6569 12.2288C20.6916 12.8429 19.9041 13.2751 19.3941 12.9151C18.8635 12.6151 18.9048 11.7713 19.4551 11.5163V11.5163ZM11.3644 13.6792C11.9626 13.517 12.6488 13.7945 12.9423 14.3363C13.2638 14.882 13.1326 15.6395 12.6329 16.0407C11.9907 16.6276 10.8085 16.3913 10.4673 15.5907C10.0744 14.8567 10.5516 13.8723 11.3635 13.6782L11.3644 13.6792ZM17.8585 13.6763C18.4407 13.5123 19.1251 13.7326 19.4382 14.2548C19.8526 14.852 19.6548 15.7435 19.0388 16.1279C18.3919 16.5751 17.3926 16.3407 17.0363 15.6413C16.6051 14.9185 17.0391 13.8967 17.8585 13.6763V13.6763ZM7.50851 14.357C8.02601 14.1648 8.59976 14.7263 8.38976 15.2317C8.26226 15.691 7.6032 15.8617 7.26288 15.5223C6.86445 15.2035 7.01163 14.4957 7.50851 14.357V14.357ZM21.5419 15.0901C21.5322 14.8837 21.6044 14.6819 21.7427 14.5284C21.8811 14.375 22.0744 14.2824 22.2807 14.2707C22.6351 14.327 22.9801 14.6082 22.9519 14.9879C22.9848 15.4895 22.3707 15.8298 21.9357 15.5945C21.7323 15.4923 21.6282 15.287 21.5419 15.0901ZM4.9632 14.6063C5.27445 14.4723 5.65976 14.7376 5.58851 15.0779C5.57163 15.4632 4.9932 15.6123 4.78132 15.2898C4.59382 15.0657 4.70632 14.7217 4.9632 14.6054V14.6063ZM24.6029 14.5979C24.8223 14.4451 25.1748 14.5548 25.261 14.807C25.4082 15.0826 25.1382 15.4595 24.8232 15.4135C24.3807 15.4529 24.2382 14.7901 24.6029 14.5979ZM13.0557 16.4476C13.8751 16.2385 14.7563 16.9107 14.7619 17.7413C14.8144 18.5804 13.9463 19.3238 13.1082 19.1307C12.4594 19.0276 11.9504 18.4126 11.9719 17.7685C11.9701 17.1517 12.4426 16.5779 13.0557 16.4476V16.4476ZM16.3013 16.4467C17.1329 16.2179 18.0404 16.9023 18.0273 17.7517C18.0713 18.5748 17.2304 19.2938 16.4091 19.1298C15.6357 19.0323 15.0657 18.197 15.2813 17.4582C15.3901 16.967 15.8082 16.5676 16.3013 16.4457V16.4467ZM10.0426 16.9576C10.6182 16.861 11.1582 17.492 10.9248 18.0301C10.7541 18.6038 9.90663 18.7585 9.53163 18.2907C9.09288 17.8407 9.42101 17.0195 10.0426 16.9576V16.9576ZM19.5619 16.9829C20.0757 16.771 20.7057 17.2079 20.6663 17.7563C20.6869 18.3592 19.9088 18.7754 19.4073 18.4229C18.8382 18.107 18.9423 17.176 19.5619 16.9829V16.9829ZM22.2226 19.6079C22.0219 19.2395 22.3866 18.751 22.8038 18.8195C23.0101 18.8157 23.1554 18.976 23.2876 19.111C23.3148 19.3295 23.3607 19.5901 23.176 19.7579C22.9257 20.0701 22.3585 19.981 22.2226 19.6079V19.6079ZM6.97132 18.9217C7.36038 18.6676 7.92007 19.0473 7.83195 19.4935C7.78507 19.8901 7.27882 20.116 6.94601 19.891C6.58788 19.6876 6.60101 19.1073 6.97132 18.9217V18.9217ZM14.6523 19.7495C15.1613 19.5292 15.8101 19.9651 15.7613 20.5163C15.7988 21.1257 14.9973 21.5476 14.4994 21.182C13.9463 20.8679 14.0391 19.9435 14.6523 19.7495V19.7495ZM11.0954 20.566C11.5285 20.342 12.1098 20.7292 12.0704 21.2073C12.0835 21.5992 11.6954 21.9329 11.3016 21.8748C10.9763 21.8682 10.7644 21.5804 10.6594 21.3076C10.6651 21.0104 10.7898 20.6795 11.0954 20.567V20.566ZM18.301 20.5735C18.7473 20.3017 19.381 20.6917 19.3388 21.2017C19.3501 21.736 18.6338 22.0773 18.2185 21.7267C17.8173 21.452 17.866 20.792 18.301 20.5735ZM19.5544 23.6204C19.3557 23.326 19.5891 22.9707 19.9107 22.9032C20.1704 22.9548 20.4451 23.147 20.3898 23.4413C20.3523 23.8417 19.7579 23.9635 19.5544 23.6213V23.6204ZM9.60663 23.3645C9.68538 23.1301 9.87663 22.8985 10.1569 22.9595C10.5648 22.9876 10.6857 23.5932 10.3285 23.7798C10.0079 23.9926 9.63476 23.701 9.60663 23.3645ZM14.4066 23.6335C14.4844 23.2867 14.9391 23.1188 15.2391 23.3026C15.4379 23.387 15.496 23.6045 15.5466 23.7901C15.5199 23.8865 15.4949 23.9834 15.4716 24.0807C15.3488 24.2232 15.1904 24.3667 14.986 24.362C14.6063 24.406 14.2632 23.9832 14.4057 23.6335H14.4066Z" fill="black"/>
</g>
<path d="M14.7423 5.68135C15.1913 5.44979 15.7398 5.9851 15.5016 6.42666C15.3619 6.78666 14.836 6.88228 14.5679 6.6076C14.2838 6.3451 14.3766 5.82385 14.7423 5.68041V5.68135ZM9.90945 6.19322C10.1823 6.0826 10.5282 6.32822 10.5001 6.62166C10.5282 6.93854 10.1344 7.17291 9.85601 7.02197C9.48757 6.88135 9.52976 6.2926 9.90945 6.19322V6.19322ZM19.8076 7.03041C19.381 6.97979 19.3135 6.31979 19.7232 6.18666C20.0419 6.03479 20.3344 6.32072 20.3813 6.61791C20.3138 6.87104 20.0982 7.10354 19.8076 7.03041V7.03041ZM11.0091 8.21635C11.4657 7.93229 12.1163 8.3551 12.046 8.87728C12.0226 9.40322 11.3119 9.70885 10.9107 9.3526C10.5226 9.07322 10.5816 8.43197 11.0091 8.21635ZM17.9748 8.51822C18.1782 8.0026 19.0032 7.98572 19.2348 8.48822C19.4644 8.87916 19.1823 9.36385 18.7744 9.49697C18.2335 9.59635 17.7207 9.02072 17.9748 8.51822ZM14.1601 9.46791C14.1554 9.02353 14.566 8.69353 14.9944 8.6626C15.2794 8.71885 15.5888 8.83791 15.7107 9.1201C15.9385 9.5101 15.736 10.0454 15.3263 10.2245C15.1388 10.3276 14.9157 10.2892 14.7113 10.277C14.3991 10.127 14.1357 9.82978 14.1601 9.46791ZM6.9732 10.1148C7.39038 9.86166 7.95288 10.321 7.79445 10.7673C7.7082 11.1526 7.18132 11.3092 6.88038 11.0635C6.55882 10.8329 6.60945 10.2788 6.97413 10.1138L6.9732 10.1148ZM22.4063 10.1129C22.7598 9.84291 23.3438 10.1532 23.3007 10.592C23.3251 10.9923 22.8198 11.2951 22.4691 11.0888C22.0829 10.9173 22.0426 10.3323 22.4063 10.1138V10.1129ZM16.1813 10.9107C16.7644 10.7045 17.4582 10.951 17.7901 11.4638C18.2288 12.0892 17.9963 13.0417 17.3148 13.4007C16.6098 13.8254 15.5794 13.4663 15.3179 12.6901C15.0226 11.9963 15.4538 11.1282 16.1804 10.9107H16.1813ZM12.7566 10.9792C13.4035 10.6792 14.2744 10.9304 14.5866 11.581C14.9541 12.2148 14.6701 13.097 14.0129 13.4242C13.3548 13.7926 12.4257 13.5132 12.1079 12.8335C11.7507 12.1754 12.0676 11.282 12.7566 10.9792V10.9792ZM9.3282 12.1313C9.37788 11.7217 9.7707 11.4545 10.1673 11.4263C10.3741 11.4482 10.5674 11.5395 10.7155 11.6855C10.8637 11.8314 10.9579 12.0233 10.9829 12.2298C10.9548 12.6517 10.6238 13.0623 10.1701 13.0604C9.67038 13.1026 9.23257 12.6132 9.3282 12.1313V12.1313ZM19.4551 11.5163C19.9679 11.2229 20.6794 11.6495 20.6569 12.2288C20.6916 12.8429 19.9041 13.2751 19.3941 12.9151C18.8635 12.6151 18.9048 11.7713 19.4551 11.5163V11.5163ZM11.3644 13.6792C11.9626 13.517 12.6488 13.7945 12.9423 14.3363C13.2638 14.882 13.1326 15.6395 12.6329 16.0407C11.9907 16.6276 10.8085 16.3913 10.4673 15.5907C10.0744 14.8567 10.5516 13.8723 11.3635 13.6782L11.3644 13.6792ZM17.8585 13.6763C18.4407 13.5123 19.1251 13.7326 19.4382 14.2548C19.8526 14.852 19.6548 15.7435 19.0388 16.1279C18.3919 16.5751 17.3926 16.3407 17.0363 15.6413C16.6051 14.9185 17.0391 13.8967 17.8585 13.6763V13.6763ZM7.50851 14.357C8.02601 14.1648 8.59976 14.7263 8.38976 15.2317C8.26226 15.691 7.6032 15.8617 7.26288 15.5223C6.86445 15.2035 7.01163 14.4957 7.50851 14.357V14.357ZM21.5419 15.0901C21.5322 14.8837 21.6044 14.6819 21.7427 14.5284C21.8811 14.375 22.0744 14.2824 22.2807 14.2707C22.6351 14.327 22.9801 14.6082 22.9519 14.9879C22.9848 15.4895 22.3707 15.8298 21.9357 15.5945C21.7323 15.4923 21.6282 15.287 21.5419 15.0901ZM4.9632 14.6063C5.27445 14.4723 5.65976 14.7376 5.58851 15.0779C5.57163 15.4632 4.9932 15.6123 4.78132 15.2898C4.59382 15.0657 4.70632 14.7217 4.9632 14.6054V14.6063ZM24.6029 14.5979C24.8223 14.4451 25.1748 14.5548 25.261 14.807C25.4082 15.0826 25.1382 15.4595 24.8232 15.4135C24.3807 15.4529 24.2382 14.7901 24.6029 14.5979ZM13.0557 16.4476C13.8751 16.2385 14.7563 16.9107 14.7619 17.7413C14.8144 18.5804 13.9463 19.3238 13.1082 19.1307C12.4594 19.0276 11.9504 18.4126 11.9719 17.7685C11.9701 17.1517 12.4426 16.5779 13.0557 16.4476V16.4476ZM16.3013 16.4467C17.1329 16.2179 18.0404 16.9023 18.0273 17.7517C18.0713 18.5748 17.2304 19.2938 16.4091 19.1298C15.6357 19.0323 15.0657 18.197 15.2813 17.4582C15.3901 16.967 15.8082 16.5676 16.3013 16.4457V16.4467ZM10.0426 16.9576C10.6182 16.861 11.1582 17.492 10.9248 18.0301C10.7541 18.6038 9.90663 18.7585 9.53163 18.2907C9.09288 17.8407 9.42101 17.0195 10.0426 16.9576V16.9576ZM19.5619 16.9829C20.0757 16.771 20.7057 17.2079 20.6663 17.7563C20.6869 18.3592 19.9088 18.7754 19.4073 18.4229C18.8382 18.107 18.9423 17.176 19.5619 16.9829V16.9829ZM22.2226 19.6079C22.0219 19.2395 22.3866 18.751 22.8038 18.8195C23.0101 18.8157 23.1554 18.976 23.2876 19.111C23.3148 19.3295 23.3607 19.5901 23.176 19.7579C22.9257 20.0701 22.3585 19.981 22.2226 19.6079V19.6079ZM6.97132 18.9217C7.36038 18.6676 7.92007 19.0473 7.83195 19.4935C7.78507 19.8901 7.27882 20.116 6.94601 19.891C6.58788 19.6876 6.60101 19.1073 6.97132 18.9217V18.9217ZM14.6523 19.7495C15.1613 19.5292 15.8101 19.9651 15.7613 20.5163C15.7988 21.1257 14.9973 21.5476 14.4994 21.182C13.9463 20.8679 14.0391 19.9435 14.6523 19.7495V19.7495ZM11.0954 20.566C11.5285 20.342 12.1098 20.7292 12.0704 21.2073C12.0835 21.5992 11.6954 21.9329 11.3016 21.8748C10.9763 21.8682 10.7644 21.5804 10.6594 21.3076C10.6651 21.0104 10.7898 20.6795 11.0954 20.567V20.566ZM18.301 20.5735C18.7473 20.3017 19.381 20.6917 19.3388 21.2017C19.3501 21.736 18.6338 22.0773 18.2185 21.7267C17.8173 21.452 17.866 20.792 18.301 20.5735ZM19.5544 23.6204C19.3557 23.326 19.5891 22.9707 19.9107 22.9032C20.1704 22.9548 20.4451 23.147 20.3898 23.4413C20.3523 23.8417 19.7579 23.9635 19.5544 23.6213V23.6204ZM9.60663 23.3645C9.68538 23.1301 9.87663 22.8985 10.1569 22.9595C10.5648 22.9876 10.6857 23.5932 10.3285 23.7798C10.0079 23.9926 9.63476 23.701 9.60663 23.3645ZM14.4066 23.6335C14.4844 23.2867 14.9391 23.1188 15.2391 23.3026C15.4379 23.387 15.496 23.6045 15.5466 23.7901C15.5199 23.8865 15.4949 23.9834 15.4716 24.0807C15.3488 24.2232 15.1904 24.3667 14.986 24.362C14.6063 24.406 14.2632 23.9832 14.4057 23.6335H14.4066Z" fill="white"/>
<defs>
<filter id="filter0_d_20_369" x="2.2539" y="4.40844" width="25.4824" height="23.6079" filterUnits="userSpaceOnUse" color-interpolation-filters="sRGB">
<feFlood flood-opacity="0" result="BackgroundImageFix"/>
<feColorMatrix in="SourceAlpha" type="matrix" values="0 0 0 0 0 0 0 0 0 0 0 0 0 0 0 0 0 0 127 0" result="hardAlpha"/>
<feOffset dy="1.21704"/>
<feGaussianBlur stdDeviation="1.21704"/>
<feColorMatrix type="matrix" values="0 0 0 0 0 0 0 0 0 0 0 0 0 0 0 0 0 0 0.204257 0"/>
<feBlend mode="normal" in2="BackgroundImageFix" result="effect1_dropShadow_20_369"/>
<feBlend mode="normal" in="SourceGraphic" in2="effect1_dropShadow_20_369" result="shape"/>
</filter>
</defs>
</svg>
