<svg width="31" height="31" viewBox="0 0 31 31" fill="none" xmlns="http://www.w3.org/2000/svg">
<path d="M15.2336 30.3645C23.5179 30.3645 30.2336 23.6488 30.2336 15.3645C30.2336 7.08023 23.5179 0.364502 15.2336 0.364502C6.94937 0.364502 0.233643 7.08023 0.233643 15.3645C0.233643 23.6488 6.94937 30.3645 15.2336 30.3645Z" fill="#F3BA2F"/>
<path d="M11.5924 13.8683L15.2336 10.227L18.8768 13.8701L20.9955 11.7514L15.2336 5.9895L9.47364 11.7495L11.5924 13.8683ZM5.85864 15.3645L7.97739 13.2458L10.0961 15.3645L7.97739 17.4833L5.85864 15.3645ZM11.5924 16.8608L15.2336 20.502L18.8768 16.8589L20.9955 18.9767L15.2336 24.7395L9.47364 18.9795L9.47083 18.9767L11.5924 16.8608ZM20.3711 15.3645L22.4899 13.2458L24.6086 15.3645L22.4899 17.4833L20.3711 15.3645ZM17.3824 15.3626H17.3843V15.3645L15.2336 17.5151L13.0858 15.3683L13.0821 15.3645L13.0858 15.3617L13.4618 14.9848L13.6446 14.802L15.2336 13.2139L17.3833 15.3636L17.3824 15.3626Z" fill="white"/>
</svg>
