<svg width="30" height="30" viewBox="0 0 30 30" fill="none" xmlns="http://www.w3.org/2000/svg">
<path d="M15 30C23.2843 30 30 23.2843 30 15C30 6.71573 23.2843 0 15 0C6.71573 0 0 6.71573 0 15C0 23.2843 6.71573 30 15 30Z" fill="#F7931A"/>
<path d="M21.7397 13.1438C22.0341 11.1788 20.5369 10.1222 18.4913 9.41719L19.155 6.75469L17.535 6.35156L16.8882 8.94375C16.4625 8.83687 16.0257 8.7375 15.5897 8.63812L16.2413 6.02906L14.6213 5.625L13.9575 8.28656C13.605 8.20594 13.2582 8.12719 12.9225 8.04281L12.9244 8.03437L10.6894 7.47656L10.2582 9.20719C10.2582 9.20719 11.461 9.48281 11.4357 9.49969C12.0919 9.66375 12.21 10.0978 12.1903 10.4428L11.4347 13.4756C11.4797 13.4869 11.5378 13.5037 11.6035 13.5291L11.4319 13.4869L10.3725 17.7356C10.2919 17.9344 10.0885 18.2334 9.62909 18.12C9.64597 18.1434 8.45159 17.8266 8.45159 17.8266L7.64722 19.6809L9.75659 20.2069C10.1485 20.3053 10.5328 20.4084 10.9107 20.505L10.2403 23.1975L11.8594 23.6006L12.5232 20.9381C12.9657 21.0572 13.395 21.1678 13.815 21.2728L13.1532 23.9241L14.7732 24.3272L15.4435 21.6403C18.2072 22.1634 20.2847 21.9525 21.1594 19.4531C21.8644 17.4413 21.1247 16.2797 19.6707 15.5231C20.73 15.2794 21.5269 14.5828 21.7397 13.1438V13.1438ZM18.0366 18.3356C17.5369 20.3484 14.1478 19.26 13.0491 18.9872L13.9397 15.42C15.0385 15.6947 18.5607 16.2375 18.0366 18.3356ZM18.5382 13.1147C18.0816 14.9456 15.2616 14.0147 14.3475 13.7869L15.1538 10.5525C16.0678 10.7803 19.0144 11.205 18.5382 13.1147Z" fill="white"/>
</svg>
