<svg width="30" height="30" viewBox="0 0 30 30" fill="none" xmlns="http://www.w3.org/2000/svg">
<path d="M15 30C23.2843 30 30 23.2843 30 15C30 6.71573 23.2843 0 15 0C6.71573 0 0 6.71573 0 15C0 23.2843 6.71573 30 15 30Z" fill="#008CE7"/>
<path d="M17.8932 7.50366H11.0719L10.5075 10.6602L16.6594 10.6696C19.6885 10.6696 20.5875 11.7693 20.5585 13.5946C20.5453 14.5302 20.1375 16.1127 19.965 16.6227C19.4991 17.9915 18.5391 19.5496 14.941 19.5449L8.96159 19.5412L8.39722 22.7015H15.2007C17.5997 22.7015 18.6216 22.4212 19.7007 21.9233C22.095 20.819 23.521 18.4537 24.0938 15.3665C24.9432 10.7727 23.8838 7.50366 17.8922 7.50366H17.8932Z" fill="white"/>
<path d="M14.8191 14.8106C15.0413 13.8872 15.1116 13.5168 15.1116 13.5168H8.13097C6.34597 13.5168 6.09097 14.6793 5.92128 15.3825C5.6991 16.3022 5.62878 16.6772 5.62878 16.6772H12.6103C14.3944 16.6772 14.6494 15.5147 14.8191 14.8106V14.8106Z" fill="white"/>
</svg>
