<svg width="30" height="30" viewBox="0 0 30 30" fill="none" xmlns="http://www.w3.org/2000/svg">
<path d="M15 30C23.2843 30 30 23.2843 30 15C30 6.71573 23.2843 0 15 0C6.71573 0 0 6.71573 0 15C0 23.2843 6.71573 30 15 30Z" fill="#EB0029"/>
<path d="M23.1984 11.4993C22.4494 10.9677 21.6478 10.4005 20.8641 9.838C20.8462 9.82488 20.8294 9.81175 20.8078 9.79863C20.716 9.72321 20.612 9.66393 20.5003 9.62332L20.4909 9.61863C18.3938 9.10402 16.2973 8.58714 14.2012 8.068L8.59125 6.68332L8.44406 6.64394C8.27531 6.59613 8.08031 6.54269 7.87219 6.56894C7.81518 6.57767 7.76078 6.59879 7.71281 6.63081L7.66031 6.67488C7.59457 6.74229 7.54434 6.82323 7.51312 6.91207L7.5 6.94769V7.14925L7.50938 7.18019C8.69063 10.5411 9.90375 13.9508 11.0738 17.2499C11.9747 19.7905 12.9113 22.4211 13.8244 25.0049C13.8806 25.1802 14.0409 25.2955 14.2406 25.3124H14.2838C14.371 25.3146 14.4573 25.2933 14.5335 25.2508C14.6097 25.2082 14.673 25.146 14.7169 25.0705L18.1481 19.9958C18.9834 18.7611 19.8197 17.5227 20.6559 16.288L21.6825 14.7674C22.245 13.933 22.8262 13.0714 23.4028 12.2324L23.4328 12.1893V12.1358C23.4459 11.9821 23.4497 11.6661 23.1984 11.4983M19.1784 13.3489C18.3722 13.7746 17.55 14.2143 16.7222 14.6493L18.1697 13.0761C18.7716 12.4171 19.3997 11.7355 20.0147 11.068L20.0278 11.0549C20.0794 10.9846 20.145 10.9189 20.2144 10.8486C20.2613 10.8008 20.3137 10.7521 20.3616 10.6949C20.6822 10.9199 21.0066 11.1477 21.3187 11.3718C21.5437 11.5339 21.7734 11.6971 22.0078 11.8593C21.0614 12.3496 20.1183 12.8461 19.1784 13.3489M17.1084 13.138C16.4888 13.8186 15.8475 14.5171 15.2109 15.2071C13.9755 13.6869 12.7364 12.1697 11.4938 10.6555L9.82594 8.62113L9.82219 8.61644C9.69656 8.47206 9.57469 8.31363 9.45375 8.16456C9.37594 8.06331 9.29344 7.96675 9.21094 7.8655C9.71344 7.99675 10.2206 8.1205 10.7184 8.23863C11.1562 8.34456 11.6109 8.45425 12.0572 8.56863L19.5994 10.4268C18.7631 11.3324 17.9222 12.2502 17.1084 13.138M14.9287 21.7011C14.9766 21.2399 15.0291 20.7655 15.0722 20.2996C15.1116 19.9255 15.15 19.5439 15.1894 19.1793C15.2494 18.5943 15.315 17.9886 15.3675 17.3952L15.3797 17.2902C15.4228 16.9114 15.4659 16.5214 15.4922 16.1296C15.5426 16.1011 15.5949 16.076 15.6487 16.0546C15.7134 16.0246 15.7781 15.9983 15.8428 15.9589C16.8434 15.4257 17.8456 14.8953 18.8494 14.368C19.8506 13.8411 20.8772 13.2955 21.8953 12.7555C20.9715 14.1123 20.0515 15.4717 19.1353 16.8336C18.36 17.9793 17.5631 19.1614 16.77 20.3258C16.4588 20.7918 16.1334 21.2661 15.8259 21.7227C15.4791 22.2327 15.1237 22.7549 14.7778 23.2789C14.8209 22.7511 14.8725 22.2196 14.9287 21.7011M8.89125 8.90238C8.835 8.74394 8.77313 8.58175 8.72156 8.428C9.89156 9.8605 11.0691 11.3014 12.2175 12.6983C12.8109 13.423 13.4044 14.1439 13.9978 14.8733C14.115 15.0093 14.2322 15.1546 14.3447 15.2952C14.4919 15.4752 14.6391 15.6646 14.7994 15.8446C14.7469 16.2964 14.7038 16.7539 14.6559 17.1927C14.6259 17.5002 14.5959 17.8086 14.5612 18.1208V18.1246C14.5481 18.3214 14.5219 18.5202 14.5003 18.7133L14.4009 19.588L14.3962 19.618C14.3184 20.5058 14.2228 21.4021 14.1319 22.2721C14.0934 22.6321 14.0588 23.0014 14.0194 23.3708C13.9978 23.3052 13.9725 23.2386 13.95 23.1768C13.884 22.9977 13.8205 22.8177 13.7597 22.6368L13.2956 21.3318L8.89031 8.90238" fill="white"/>
</svg>
