<svg width="31" height="31" viewBox="0 0 31 31" fill="none" xmlns="http://www.w3.org/2000/svg">
<path d="M15.2336 30.3645C23.5179 30.3645 30.2336 23.6488 30.2336 15.3645C30.2336 7.08023 23.5179 0.364502 15.2336 0.364502C6.94937 0.364502 0.233643 7.08023 0.233643 15.3645C0.233643 23.6488 6.94937 30.3645 15.2336 30.3645Z" fill="#FF6600"/>
<path d="M15.2055 5.27246C20.8165 5.27246 25.354 9.80996 25.354 15.42C25.3502 16.5133 25.1736 17.5992 24.8308 18.6375H21.8065V10.1118L15.2065 16.7118L8.60646 10.1118V18.6375H5.58115C5.23869 17.5992 5.06246 16.5133 5.05896 15.42C5.05896 9.80996 9.59646 5.27246 15.2065 5.27246H15.2055ZM13.6943 18.1959L15.2336 19.71L16.7458 18.1968L19.6061 15.3093V20.6718H23.869C22.9648 22.1589 21.6927 23.388 20.1755 24.2406C18.6582 25.0931 16.9469 25.5404 15.2065 25.5393C11.5483 25.5393 8.33084 23.5875 6.54396 20.6718H10.8058V15.3093L13.6933 18.1968L13.6943 18.1959Z" fill="white"/>
</svg>
